<?xml version="1.0" encoding="UTF-8"?>
<svg width="41px" height="40px" viewBox="0 0 41 40" version="1.1" xmlns="http://www.w3.org/2000/svg" xmlns:xlink="http://www.w3.org/1999/xlink">
    <!-- Generator: sketchtool 53.2 (72643) - https://sketchapp.com -->
    <title>F724023B-354D-48EF-AC2A-E9F5721D5C0F</title>
    <desc>Created with sketchtool.</desc>
    <g id="Asset-Artboard-Page" stroke="none" stroke-width="1" fill="none" fill-rule="evenodd">
        <g id="Icon/40x40/ic-image" transform="translate(0.071429, 0.000000)">
            <rect id="Area" x="16" y="17" width="7" height="7"></rect>
            <circle id="Oval" stroke="#1C1E20" stroke-width="2" cx="20" cy="20" r="19"></circle>
            <ellipse id="Oval-Copy-3" stroke="#1C1E20" stroke-width="1.5" cx="20" cy="20" rx="12" ry="19"></ellipse>
            <ellipse id="Oval-Copy-2" stroke="#1C1E20" stroke-width="1.5" transform="translate(20.000000, 20.000000) rotate(-90.000000) translate(-20.000000, -20.000000) " cx="20" cy="20" rx="10" ry="19"></ellipse>
            <path d="M16.0963278,20.2288488 C16.2751473,20.6819255 16.3645556,21.2043429 16.3645556,21.7961165 C16.3645556,22.3878902 16.2706768,22.9056843 16.0829165,23.3495146 C15.8951561,23.8673165 15.6023437,24.2649085 15.2044705,24.5423024 C14.8065973,24.8196963 14.3036752,24.9583911 13.6956892,24.9583911 C13.0072345,24.9583911 12.4305505,24.7711531 11.96562,24.3966713 C11.5006895,24.0221895 11.2101123,23.5205764 11.0938797,22.8918169 C11.0491749,22.6236695 11.0178819,22.3092945 11,21.9486824 C11,21.8377248 11.053645,21.7822469 11.1609367,21.7822469 L12.3947845,21.7822469 C12.5020761,21.7822469 12.5557211,21.8377248 12.5557211,21.9486824 C12.5736031,22.2075834 12.6004256,22.4294951 12.6361895,22.6144244 C12.6898353,22.9103112 12.8105366,23.1437809 12.998297,23.3148405 C13.1860574,23.4859001 13.4185191,23.5714286 13.6956892,23.5714286 C13.9549774,23.5714286 14.1740278,23.497458 14.3528473,23.3495146 C14.5316667,23.2015712 14.6568384,22.9935288 14.7283662,22.7253814 C14.7998939,22.4017552 14.8356573,22.0503949 14.8356573,21.6712899 C14.8356573,21.2089667 14.7909531,20.8344906 14.7015434,20.5478502 C14.522724,20.0115553 14.1874426,19.7434119 13.6956892,19.7434119 C13.5526337,19.7434119 13.4006394,19.7896436 13.239702,19.8821082 C13.2039381,19.9098476 13.1681747,19.9237171 13.1324109,19.9237171 C13.087706,19.9237171 13.0474722,19.9052244 13.0117084,19.8682386 L12.3947845,19.147018 C12.3590206,19.1100322 12.3411389,19.0684237 12.3411389,19.0221914 C12.3411389,18.9759591 12.3545502,18.9389738 12.3813731,18.9112344 L14.3528473,16.6088766 C14.3975521,16.5533978 14.3841409,16.5256588 14.3126131,16.5256588 L11.2950506,16.5256588 C11.2503457,16.5256588 11.2123471,16.5094777 11.1810538,16.4771151 C11.1497604,16.4447525 11.1341139,16.4054556 11.1341139,16.3592233 L11.1341139,15.3051318 C11.1341139,15.2588994 11.1497604,15.2196026 11.1810538,15.1872399 C11.2123471,15.1548773 11.2503457,15.1386963 11.2950506,15.1386963 L16.1499734,15.1386963 C16.1946783,15.1386963 16.2326768,15.1548773 16.2639702,15.1872399 C16.2952636,15.2196026 16.3109101,15.2588994 16.3109101,15.3051318 L16.3109101,16.4147018 C16.3109101,16.49792 16.288558,16.5626442 16.2438531,16.6088766 L14.4735498,18.7864078 C14.4467269,18.8326401 14.4556677,18.8603791 14.5003725,18.8696255 C14.8758933,18.9251043 15.1999986,19.0707339 15.4726982,19.3065187 C15.7453979,19.5423035 15.9532723,19.8497438 16.0963278,20.2288488 Z M22.3939329,20.3675451 C22.5638114,20.7928824 22.6487493,21.2736913 22.6487493,21.8099861 C22.6487493,22.2445699 22.5906339,22.6652777 22.4744013,23.0721221 C22.3313457,23.6731422 22.0430038,24.1354584 21.6093667,24.4590846 C21.1757296,24.7827108 20.6281034,24.9445215 19.9664715,24.9445215 C19.3495445,24.9445215 18.830976,24.7965803 18.4107504,24.5006935 C17.9905248,24.2048067 17.6954772,23.7794757 17.5255987,23.2246879 L17.4987759,23.1414702 C17.3557204,22.8085975 17.2841937,22.3832666 17.2841937,21.8654646 L17.2707823,17.4965326 C17.2707823,16.7475691 17.5144201,16.1488696 18.001703,15.7004161 C18.4889859,15.2519626 19.1260205,15.0277393 19.912826,15.0277393 C20.6638675,15.0277393 21.2763148,15.2519626 21.7501863,15.7004161 C22.2240577,16.1488696 22.4609899,16.7383227 22.4609899,17.4687933 L22.4609899,17.7877947 C22.4609899,17.834027 22.4453434,17.8733239 22.41405,17.9056865 C22.3827566,17.9380492 22.3447581,17.9542302 22.3000532,17.9542302 L21.0662054,17.9542302 C21.0215006,17.9542302 20.983502,17.9380492 20.9522086,17.9056865 C20.9209152,17.8733239 20.9052688,17.834027 20.9052688,17.7877947 L20.9052688,17.6074896 C20.9052688,17.2653705 20.81139,16.9856691 20.6236296,16.7683773 C20.4358692,16.5510854 20.198937,16.4424411 19.912826,16.4424411 C19.599892,16.4424411 19.3428429,16.5510854 19.1416711,16.7683773 C18.9404993,16.9856691 18.8399148,17.2746168 18.8399148,17.6352288 L18.8399148,19.1192788 C18.8399148,19.1470182 18.8488557,19.1655108 18.8667376,19.1747573 C18.8846196,19.1840037 18.9025012,19.1793806 18.9203832,19.1608877 C19.2601401,18.8372614 19.675889,18.6754508 20.1676424,18.6754508 C20.7219825,18.6754508 21.1913765,18.8257035 21.5758382,19.1262136 C21.9603,19.4267236 22.2329955,19.8404967 22.3939329,20.3675451 Z M20.9589143,22.6976422 C21.0393831,22.4017553 21.0796168,22.0920035 21.0796168,21.7683773 C21.0796168,21.3892723 21.0259718,21.0471583 20.9186802,20.742025 C20.7488017,20.2519624 20.4269316,20.0069348 19.9530601,20.0069348 C19.4702477,20.0069348 19.1439072,20.2565856 18.9740287,20.7558946 C18.884619,21.024042 18.8399148,21.3707792 18.8399148,21.7961165 C18.8399148,22.1567286 18.8756782,22.4664804 18.947206,22.7253814 C19.0992025,23.2801692 19.4344838,23.5575589 19.9530601,23.5575589 C20.4716364,23.5575589 20.8069178,23.2709229 20.9589143,22.6976422 Z M26.2104311,25 C25.3699798,25 24.6971819,24.7387913 24.192017,24.2163662 C23.6868522,23.693941 23.4342735,22.9981551 23.4342735,22.1289875 L23.4342735,17.8571429 C23.4342735,16.9879753 23.6868522,16.294501 24.192017,15.776699 C24.6971819,15.2588971 25.3699798,15 26.2104311,15 C27.0598233,15 27.7370917,15.2588971 28.2422565,15.776699 C28.7474214,16.294501 29,16.9879753 29,17.8571429 L29,22.1289875 C29,22.9981551 28.7474214,23.693941 28.2422565,24.2163662 C27.7370917,24.7387913 27.0598233,25 26.2104311,25 Z M26.2104311,23.5991678 C26.5859518,23.5991678 26.8854699,23.4743424 27.1089941,23.2246879 C27.3325184,22.9750334 27.4442789,22.6421657 27.4442789,22.2260749 L27.4442789,17.7877947 C27.4442789,17.3624574 27.3325184,17.0249666 27.1089941,16.7753121 C26.8854699,16.5256576 26.5859518,16.4008322 26.2104311,16.4008322 C25.8438513,16.4008322 25.5488037,16.5256576 25.3252794,16.7753121 C25.1017551,17.0249666 24.9899947,17.3624574 24.9899947,17.7877947 L24.9899947,22.2260749 C24.9899947,22.6421657 25.1017551,22.9750334 25.3252794,23.2246879 C25.5488037,23.4743424 25.8438513,23.5991678 26.2104311,23.5991678 Z" id="360-copy" fill="#1C1E20" fill-rule="nonzero"></path>
        </g>
    </g>
</svg>