<?xml version="1.0" encoding="UTF-8"?>
<svg width="41px" height="40px" viewBox="0 0 41 40" version="1.1" xmlns="http://www.w3.org/2000/svg" xmlns:xlink="http://www.w3.org/1999/xlink">
    <!-- Generator: sketchtool 53.2 (72643) - https://sketchapp.com -->
    <title>795A4896-17A1-4EB4-AEDC-3469431B4C8F</title>
    <desc>Created with sketchtool.</desc>
    <g id="Asset-Artboard-Page" stroke="none" stroke-width="1" fill="none" fill-rule="evenodd">
        <g id="Icon/40x40/ic-image" transform="translate(0.071429, 0.000000)">
            <g id="Group-37">
                <rect id="Rectangle" x="0" y="0" width="40" height="40"></rect>
                <path d="M18.1490938,37.486883 L1.8274663,27.4217426 C1.30975366,27.1012226 1,26.5690076 1,26 C1,25.4309924 1.30975366,24.8987774 1.8274663,24.5782574 L18.1490938,14.513117 C19.2680385,13.828961 20.7319615,13.828961 21.8509062,14.513117 L38.1725337,24.5782574 C38.6902463,24.8987774 39,25.4309924 39,26 C39,26.5690076 38.6902463,27.1012226 38.1725337,27.4217426 L21.8509062,37.486883 C20.7319615,38.171039 19.2680385,38.171039 18.1490938,37.486883 Z" id="Path-Copy-2" stroke="#1C1E20" stroke-width="2" fill="#FFFFFF" stroke-linecap="round" stroke-linejoin="round"></path>
                <path d="M18.1490938,31.486883 L1.8274663,21.4217426 C1.30975366,21.1012226 1,20.5690076 1,20 C1,19.4309924 1.30975366,18.8987774 1.8274663,18.5782574 L18.1490938,8.51311697 C19.2680385,7.82896101 20.7319615,7.82896101 21.8509062,8.51311697 L38.1725337,18.5782574 C38.6902463,18.8987774 39,19.4309924 39,20 C39,20.5690076 38.6902463,21.1012226 38.1725337,21.4217426 L21.8509062,31.486883 C20.7319615,32.171039 19.2680385,32.171039 18.1490938,31.486883 Z" id="Path-Copy-11" stroke="#1C1E20" stroke-width="2" fill="#FFFFFF" stroke-linecap="round" stroke-linejoin="round"></path>
                <path d="M9.32856863,7.95251475 C10.9813927,6.93325936 13.9215678,5.12012677 18.1490938,2.51311697 C19.2680385,1.82896101 20.7319615,1.82896101 21.8509062,2.51311697 L38.1725337,12.5782574 C38.6902463,12.8987774 39,13.4309924 39,14 C39,14.5690076 38.6902463,15.1012226 38.1725337,15.4217426 L21.8509062,25.486883 C20.7319615,26.171039 19.2680385,26.171039 18.1490938,25.486883 L18.1490938,25.486883 L1.8274663,15.4217426 C1.30975366,15.1012226 1,14.5690076 1,14 C1,13.4309924 1.30975366,12.8987774 1.8274663,12.5782574 C2.80760233,11.973832 3.54270436,11.5205129 4.03277238,11.2183002" id="Path" stroke="#1C1E20" stroke-width="2" fill="#FFFFFF" stroke-linecap="round" stroke-linejoin="round"></path>
                <polyline id="Shape" stroke="#1C1E20" stroke-width="2" stroke-linecap="round" stroke-linejoin="round" points="19.5711741 21.3790662 19.5711741 16.1789064 23.816983 16.1789064 23.4337388 10.7473817 31 12.7743426"></polyline>
                <ellipse id="Oval" stroke="#1C1E20" stroke-width="2" cx="14" cy="12" rx="3" ry="2"></ellipse>
            </g>
        </g>
    </g>
</svg>