<svg width="40" height="40" viewBox="0 0 40 40" fill="none" xmlns="http://www.w3.org/2000/svg">
<g id="Icon/40x40/ic-tap">
<path id="Oval" fill-rule="evenodd" clip-rule="evenodd" d="M14.3652 12C17.4028 12 19.8652 9.53757 19.8652 6.5C19.8652 3.46243 17.4028 1 14.3652 1C11.3277 1 8.86523 3.46243 8.86523 6.5C8.86523 9.53757 11.3277 12 14.3652 12Z" stroke="#1C1E20" stroke-width="2"/>
<g id="Shape Copy 4">
<path fill-rule="evenodd" clip-rule="evenodd" d="M11.8652 24V7.375C11.8652 6.06332 12.9845 5 14.3652 5C15.7459 5 16.8652 6.06332 16.8652 7.375V22.8125" fill="white"/>
<path d="M11.8652 24V7.375C11.8652 6.06332 12.9845 5 14.3652 5C15.7459 5 16.8652 6.06332 16.8652 7.375V22.8125" stroke="#1C1E20" stroke-width="2" stroke-linecap="round"/>
</g>
<path id="Shape Copy 5" d="M16.8652 22V16C16.8652 14.8954 17.9845 14 19.3652 14C20.7459 14 21.8652 14.8954 21.8652 16V20" stroke="#1C1E20" stroke-width="2" stroke-linecap="round"/>
<path id="Shape Copy 6" d="M21.8652 23V18C21.8652 16.8954 22.9845 16 24.3652 16C25.7459 16 26.8652 16.8954 26.8652 18V23" stroke="#1C1E20" stroke-width="2" stroke-linecap="round"/>
<path id="Shape Copy 7" d="M26.8652 22V21C26.8652 19.8954 27.9845 19 29.3652 19C30.7459 19 31.8652 19.8954 31.8652 21V32" stroke="#1C1E20" stroke-width="2" stroke-linecap="round"/>
<path id="Shape Copy 8" d="M32.8648 32.2295C32.8648 31.6772 32.4171 31.2295 31.8648 31.2295C31.3125 31.2295 30.8648 31.6772 30.8648 32.2295H32.8648ZM25.8926 38C25.3403 38 24.8926 38.4477 24.8926 39C24.8926 39.5523 25.3403 40 25.8926 40V38ZM20.0333 40C20.5855 40 21.0333 39.5523 21.0333 39C21.0333 38.4477 20.5855 38 20.0333 38V40ZM17.5265 39V38H17.5265L17.5265 39ZM7.82934 31.4422L6.85962 31.6864L7.82934 31.4422ZM6.98158 28.2295L7.93421 27.9253L6.98158 28.2295ZM4.09017 22.3116L5.06348 22.0821L4.09017 22.3116ZM7.43069 19L7.64291 18.0228L7.43069 19ZM10.9614 24.4288C11.1982 24.9277 11.7946 25.1402 12.2936 24.9034C12.7925 24.6666 13.005 24.0702 12.7682 23.5712L10.9614 24.4288ZM30.8648 32.2295V33.0164H32.8648V32.2295H30.8648ZM30.8648 33.0164C30.8648 35.7705 28.6369 38 25.8926 38V40C29.745 40 32.8648 36.8715 32.8648 33.0164H30.8648ZM20.0333 38C19.6377 38 19.4688 38 17.5265 38V40C19.4688 40 19.6377 40 20.0333 40V38ZM17.5265 38C13.4026 38 9.80621 35.1971 8.79906 31.198L6.85962 31.6864C8.09058 36.5742 12.4861 40 17.5265 40L17.5265 38ZM8.79906 31.198C8.35941 29.4522 8.06807 28.3446 7.93421 27.9253L6.02896 28.5336C6.13919 28.8789 6.41303 29.9131 6.85962 31.6864L8.79906 31.198ZM7.93421 27.9253C7.30179 25.9445 6.58948 24.5913 6.00821 23.6297C5.7344 23.1767 5.45557 22.758 5.29812 22.5066C5.21027 22.3663 5.1501 22.2634 5.109 22.1829C5.06684 22.1003 5.06123 22.0726 5.06348 22.0821L3.11686 22.5411C3.20681 22.9226 3.42702 23.2869 3.60302 23.568C3.81628 23.9086 4.02198 24.2099 4.29661 24.6643C4.81221 25.5173 5.45242 26.7278 6.02896 28.5336L7.93421 27.9253ZM5.06348 22.0821C4.89016 21.3471 5.08832 20.7522 5.43733 20.3894C5.7772 20.036 6.36714 19.7923 7.21848 19.9772L7.64291 18.0228C6.19647 17.7087 4.87327 18.0907 3.99589 19.0029C3.12764 19.9056 2.80443 21.216 3.11686 22.5411L5.06348 22.0821ZM7.21848 19.9772C7.70599 20.0831 8.28437 20.4238 8.93993 21.163C9.59384 21.9004 10.2719 22.9762 10.9614 24.4288L12.7682 23.5712C12.0334 22.0231 11.2604 20.7653 10.4363 19.836C9.61381 18.9086 8.68725 18.2496 7.64291 18.0228L7.21848 19.9772Z" fill="#1C1E20"/>
</g>
</svg>
