<svg width="40" height="40" viewBox="0 0 40 40" fill="none" xmlns="http://www.w3.org/2000/svg">
<g id="Icon/40x40/ic-ui-button">
<g id="Icon/40x40/ic-image">
<g id="Path">
<path fill-rule="evenodd" clip-rule="evenodd" d="M39 18.1277V31.8722C39 33.6552 38.8144 34.3018 38.4657 34.9537C38.1171 35.6055 37.6055 36.1171 36.9537 36.4657C36.3018 36.8143 35.6553 37 33.8722 37H6.12777C4.34473 37 3.69816 36.8143 3.04631 36.4657C2.39446 36.1171 1.88288 35.6055 1.53427 34.9537C1.18565 34.3018 1 33.6552 1 31.8722L1 18.1277" fill="white"/>
<path d="M39 18.1277V31.8722C39 33.6552 38.8144 34.3018 38.4657 34.9537C38.1171 35.6055 37.6055 36.1171 36.9537 36.4657C36.3018 36.8143 35.6553 37 33.8722 37H6.12777C4.34473 37 3.69816 36.8143 3.04631 36.4657C2.39446 36.1171 1.88288 35.6055 1.53427 34.9537C1.18565 34.3018 1 33.6552 1 31.8722L1 18.1277" stroke="#1C1E20" stroke-width="2"/>
</g>
<path id="Path_2" d="M15.5469 6H33.8722C35.6553 6 36.3018 6.18565 36.9537 6.53427C37.6055 6.88288 38.1171 7.39446 38.4657 8.04631C38.8144 8.69816 39 9.34473 39 11.1278V27.8722C39 29.6553 38.8144 30.3018 38.4657 30.9537C38.1171 31.6055 37.6055 32.1171 36.9537 32.4657C36.3018 32.8143 35.6553 33 33.8722 33C33.8722 33 27.4876 33 24.2953 33C18.2395 33 6.12777 33 6.12777 33C4.34473 33 3.69816 32.8143 3.04631 32.4657C2.39446 32.1171 1.88288 31.6055 1.53427 30.9537C1.18565 30.3018 1 29.6553 1 27.8722L1 11.1278C1 9.34473 1.18565 8.69816 1.53427 8.04631C1.88288 7.39446 2.39446 6.88288 3.04631 6.53427C3.69816 6.18565 4.34473 6 6.12777 6H7.84154" stroke="#1C1E20" stroke-width="2" stroke-linecap="round"/>
<g id="Group">
<path id="Path 2 Copy" d="M12 18.5H29" stroke="#1C1E20" stroke-width="2" stroke-linecap="round"/>
<path id="Path 2 Copy 2" d="M12 21.5H29" stroke="#1C1E20" stroke-width="2" stroke-linecap="round"/>
</g>
</g>
</g>
</svg>
