<svg width="42" height="40" viewBox="0 0 42 40" fill="none" xmlns="http://www.w3.org/2000/svg">
<g id="Icon/40x40/ic-video">
<g id="Icon/40x40/ic-image">
<path id="Shape" d="M16.5712 3C15.4667 3 14.5712 3.89543 14.5712 5H16.5712V3ZM36 3H16.5712V5H36V3ZM42 9C42 5.68629 39.3137 3 36 3V5C38.2091 5 40 6.79086 40 9H42ZM42 31V9H40V31H42ZM36 37C39.3137 37 42 34.3137 42 31H40C40 33.2091 38.2091 35 36 35V37ZM35.9352 37H36V35H35.9352V37ZM35.8709 37H35.9352V35H35.8709V37ZM35.8071 37H35.8709V35H35.8071V37ZM35.7437 37H35.8071V35H35.7437V37ZM35.6807 37H35.7437V35H35.6807V37ZM35.6182 37H35.6807V35H35.6182V37ZM35.5561 37H35.6182V35H35.5561V37ZM35.4944 37H35.5561V35H35.4944V37ZM35.4332 37H35.4944V35H35.4332V37ZM35.3724 37H35.4332V35H35.3724V37ZM35.3121 37H35.3724V35H35.3121V37ZM35.2522 37H35.3121V35H35.2522V37ZM35.1927 37H35.2522V35H35.1927V37ZM35.1337 37H35.1927V35H35.1337V37ZM35.0751 37H35.1337V35H35.0751V37ZM35.0169 37H35.0751V35H35.0169V37ZM34.9591 37H35.0169V35H34.9591V37ZM34.9018 37H34.9591V35H34.9018V37ZM34.8449 37H34.9018V35H34.8449V37ZM34.7884 37H34.8449V35H34.7884V37ZM34.7323 37H34.7884V35H34.7323V37ZM34.6767 37H34.7323V35H34.6767V37ZM34.6215 37H34.6767V35H34.6215V37ZM34.5667 37H34.6215V35H34.5667V37ZM34.5123 37H34.5667V35H34.5123V37ZM34.4583 37H34.5123V35H34.4583V37ZM34.4047 37H34.4583V35H34.4047V37ZM34.3516 37H34.4047V35H34.3516V37ZM34.2988 37H34.3516V35H34.2988V37ZM34.2465 37H34.2988V35H34.2465V37ZM34.1945 37H34.2465V35H34.1945V37ZM34.143 37H34.1945V35H34.143V37ZM34.0919 37H34.143V35H34.0919V37ZM34.0411 37H34.0919V35H34.0411V37ZM33.9908 37H34.0411V35H33.9908V37ZM33.9409 37H33.9908V35H33.9409V37ZM33.8914 37H33.9409V35H33.8914V37ZM33.8422 37H33.8914V35H33.8422V37ZM33.7935 37H33.8422V35H33.7935V37ZM33.7452 37H33.7935V35H33.7452V37ZM33.6972 37H33.7452V35H33.6972V37ZM33.6497 37H33.6972V35H33.6497V37ZM33.6025 37H33.6497V35H33.6025V37ZM33.5557 37H33.6025V35H33.5557V37ZM33.5093 37H33.5557V35H33.5093V37ZM33.4633 37H33.5093V35H33.4633V37ZM33.4177 37H33.4633V35H33.4177V37ZM33.3724 37H33.4177V35H33.3724V37ZM33.3276 37H33.3724V35H33.3276V37ZM33.2831 37H33.3276V35H33.2831V37ZM33.239 37H33.2831V35H33.239V37ZM33.1953 37H33.239V35H33.1953V37ZM33.1519 37H33.1953V35H33.1519V37ZM33.1089 37H33.1519V35H33.1089V37ZM33.0663 37H33.1089V35H33.0663V37ZM33.0241 37H33.0663V35H33.0241V37ZM32.9822 37H33.0241V35H32.9822V37ZM32.9407 37H32.9822V35H32.9407V37ZM32.8996 37H32.9407V35H32.8996V37ZM32.8588 37H32.8996V35H32.8588V37ZM32.8184 37H32.8588V35H32.8184V37ZM32.7784 37H32.8184V35H32.7784V37ZM32.7387 37H32.7784V35H32.7387V37ZM32.6994 37H32.7387V35H32.6994V37ZM32.6604 37H32.6994V35H32.6604V37ZM32.6218 37H32.6604V35H32.6218V37ZM32.5836 37H32.6218V35H32.5836V37ZM32.5457 37H32.5836V35H32.5457V37ZM32.5081 37H32.5457V35H32.5081V37ZM32.4709 37H32.5081V35H32.4709V37ZM32.4341 37H32.4709V35H32.4341V37ZM32.3976 37H32.4341V35H32.3976V37ZM32.3614 37H32.3976V35H32.3614V37ZM32.3256 37H32.3614V35H32.3256V37ZM32.2901 37H32.3256V35H32.2901V37ZM32.255 37H32.2901V35H32.255V37ZM32.2202 37H32.255V35H32.2202V37ZM32.1858 37H32.2202V35H32.1858V37ZM32.1517 37H32.1858V35H32.1517V37ZM32.1179 37H32.1517V35H32.1179V37ZM32.0845 37H32.1179V35H32.0845V37ZM32.0514 37H32.0845V35H32.0514V37ZM32.0186 37H32.0514V35H32.0186V37ZM31.9862 37H32.0186V35H31.9862V37ZM31.9541 37H31.9862V35H31.9541V37ZM31.9223 37H31.9541V35H31.9223V37ZM31.8909 37H31.9223V35H31.8909V37ZM31.8597 37H31.8909V35H31.8597V37ZM31.8289 37H31.8597V35H31.8289V37ZM31.7985 37H31.8289V35H31.7985V37ZM31.7683 37H31.7985V35H31.7683V37ZM31.7385 37H31.7683V35H31.7385V37ZM31.7089 37H31.7385V35H31.7089V37ZM31.6797 37H31.7089V35H31.6797V37ZM31.6508 37H31.6797V35H31.6508V37ZM31.6223 37H31.6508V35H31.6223V37ZM31.594 37H31.6223V35H31.594V37ZM31.566 37H31.594V35H31.566V37ZM31.5384 37H31.566V35H31.5384V37ZM31.511 37H31.5384V35H31.511V37ZM31.484 37H31.511V35H31.484V37ZM31.4573 37H31.484V35H31.4573V37ZM31.4309 37H31.4573V35H31.4309V37ZM31.4047 37H31.4309V35H31.4047V37ZM31.3789 37H31.4047V35H31.3789V37ZM31.3534 37H31.3789V35H31.3534V37ZM31.3282 37H31.3534V35H31.3282V37ZM31.3033 37H31.3282V35H31.3033V37ZM31.2786 37H31.3033V35H31.2786V37ZM31.2543 37H31.2786V35H31.2543V37ZM31.2302 37H31.2543V35H31.2302V37ZM31.2065 37H31.2302V35H31.2065V37ZM31.183 37H31.2065V35H31.183V37ZM31.1598 37H31.183V35H31.1598V37ZM31.1369 37H31.1598V35H31.1369V37ZM31.1143 37H31.1369V35H31.1143V37ZM31.092 37H31.1143V35H31.092V37ZM31.07 37H31.092V35H31.07V37ZM31.0482 37H31.07V35H31.0482V37ZM31.0267 37H31.0482V35H31.0267V37ZM31.0055 37H31.0267V35H31.0055V37ZM30.9846 37H31.0055V35H30.9846V37ZM30.9639 37H30.9846V35H30.9639V37ZM30.9436 37H30.9639V35H30.9436V37ZM30.9235 37H30.9436V35H30.9235V37ZM30.9036 37H30.9235V35H30.9036V37ZM30.8841 37H30.9036V35H30.8841V37ZM30.8648 37H30.8841V35H30.8648V37ZM30.8457 37H30.8648V35H30.8457V37ZM30.827 37H30.8457V35H30.827V37ZM30.8085 37H30.827V35H30.8085V37ZM30.7902 37H30.8085V35H30.7902V37ZM30.7722 37H30.7902V35H30.7722V37ZM30.7545 37H30.7722V35H30.7545V37ZM30.737 37H30.7545V35H30.737V37ZM30.7198 37H30.737V35H30.7198V37ZM30.7074 37H30.7198V35H30.7074V37ZM30.7074 37H30.7074V35H30.7074V37ZM30.7074 37H30.7074V35H30.7074V37ZM30.7072 37H30.7074V35H30.7072V37ZM30.7072 37H30.7072V35H30.7072V37ZM30.7069 37H30.7072V35H30.7069V37ZM30.7068 37H30.7069V35H30.7068V37ZM30.7065 37H30.7068V35H30.7065V37ZM30.7064 37H30.7065V35H30.7064V37ZM30.7059 37H30.7064V35H30.7059V37ZM30.7058 37H30.7059V35H30.7058V37ZM30.7053 37H30.7058V35H30.7053V37ZM30.705 37H30.7053V35H30.705V37ZM30.7045 37H30.705V35H30.7045V37ZM30.7042 37H30.7045V35H30.7042V37ZM30.7036 37H30.7042V35H30.7036V37ZM30.7032 37H30.7036V35H30.7032V37ZM30.7029 37H30.7032V35H30.7029V37ZM30.7025 37H30.7029V35H30.7025V37ZM30.702 37H30.7025V35H30.702V37ZM30.7014 37H30.702V35H30.7014V37ZM30.7008 37H30.7014V35H30.7008V37ZM30.7002 37H30.7008V35H30.7002V37ZM30.6993 37H30.7002V35H30.6993V37ZM30.6988 37H30.6993V35H30.6988V37ZM30.6978 37H30.6988V35H30.6978V37ZM30.6973 37H30.6978V35H30.6973V37ZM30.6961 37H30.6973V35H30.6961V37ZM30.6958 37H30.6961V35H30.6958V37ZM30.6942 37H30.6958V35H30.6942V37ZM30.6941 37H30.6942V35H30.6941V37ZM30.6923 37H30.6941V35H30.6923V37ZM30.6922 37H30.6923V35H30.6922V37ZM30.6904 37H30.6922V35H30.6904V37ZM30.6901 37H30.6904V35H30.6901V37ZM30.6884 37H30.6901V35H30.6884V37ZM30.6878 37H30.6884V35H30.6878V37ZM30.6863 37H30.6878V35H30.6863V37ZM30.6862 37H30.6863V35H30.6862V37ZM30.6853 37H30.6862V35H30.6853V37ZM30.6841 37H30.6853V35H30.6841V37ZM30.6827 37H30.6841V35H30.6827V37ZM30.6818 37H30.6827V35H30.6818V37ZM30.68 37H30.6818V35H30.68V37ZM30.6794 37H30.68V35H30.6794V37ZM30.677 37H30.6794V35H30.677V37ZM30.6769 37H30.677V35H30.6769V37ZM30.6744 37H30.6769V35H30.6744V37ZM30.674 37H30.6744V35H30.674V37ZM30.6717 37H30.674V35H30.6717V37ZM30.6707 37H30.6717V35H30.6707V37ZM30.6697 37H30.6707V35H30.6697V37ZM30.6689 37H30.6697V35H30.6689V37ZM30.6674 37H30.6689V35H30.6674V37ZM30.6661 37H30.6674V35H30.6661V37ZM30.6638 37H30.6661V35H30.6638V37ZM30.6631 37H30.6638V35H30.6631V37ZM30.6601 37H30.6631V35H30.6601V37ZM30.657 37H30.6601V35H30.657V37ZM30.6562 37H30.657V35H30.6562V37ZM30.6538 37H30.6562V35H30.6538V37ZM30.6535 37H30.6538V35H30.6535V37ZM30.6522 37H30.6535V35H30.6522V37ZM30.6505 37H30.6522V35H30.6505V37ZM30.648 37H30.6505V35H30.648V37ZM30.6471 37H30.648V35H30.6471V37ZM30.6437 37H30.6471V35H30.6437V37ZM30.6436 37H30.6437V35H30.6436V37ZM30.6402 37H30.6436V35H30.6402V37ZM30.639 37H30.6402V35H30.639V37ZM30.6376 37H30.639V35H30.6376V37ZM30.6366 37H30.6376V35H30.6366V37ZM30.6343 37H30.6366V35H30.6343V37ZM30.6329 37H30.6343V35H30.6329V37ZM30.6294 37H30.6329V35H30.6294V37ZM30.6291 37H30.6294V35H30.6291V37ZM30.6253 37H30.6291V35H30.6253V37ZM30.6243 37H30.6253V35H30.6243V37ZM30.6219 37H30.6243V35H30.6219V37ZM30.6214 37H30.6219V35H30.6214V37ZM30.6191 37H30.6214V35H30.6191V37ZM30.6175 37H30.6191V35H30.6175V37ZM30.6137 37H30.6175V35H30.6137V37ZM30.6134 37H30.6137V35H30.6134V37ZM30.6093 37H30.6134V35H30.6093V37ZM30.6081 37H30.6093V35H30.6081V37ZM30.6064 37H30.6081V35H30.6064V37ZM30.6052 37H30.6064V35H30.6052V37ZM30.6023 37H30.6052V35H30.6023V37ZM30.6009 37H30.6023V35H30.6009V37ZM30.5966 37H30.6009V35H30.5966V37ZM30.5964 37H30.5966V35H30.5964V37ZM30.5923 37H30.5964V35H30.5923V37ZM30.5912 37H30.5923V35H30.5912V37ZM30.5902 37H30.5912V35H30.5902V37ZM30.5879 37H30.5902V35H30.5879V37ZM30.5839 37H30.5879V35H30.5839V37ZM30.5834 37H30.5839V35H30.5834V37ZM30.5789 37H30.5834V35H30.5789V37ZM30.5774 37H30.5789V35H30.5774V37ZM30.5763 37H30.5774V35H30.5763V37ZM30.5743 37H30.5763V35H30.5743V37ZM30.5707 37H30.5743V35H30.5707V37ZM30.5697 37H30.5707V35H30.5697V37ZM30.565 37H30.5697V35H30.565V37ZM30.5638 37H30.565V35H30.5638V37ZM30.5615 37H30.5638V35H30.5615V37ZM30.5602 37H30.5615V35H30.5602V37ZM30.5567 37H30.5602V35H30.5567V37ZM30.5554 37H30.5567V35H30.5554V37ZM30.5506 37H30.5554V35H30.5506V37ZM30.5494 37H30.5506V35H30.5494V37ZM30.547 37H30.5494V35H30.547V37ZM30.5457 37H30.547V35H30.5457V37ZM30.542 37H30.5457V35H30.542V37ZM30.5408 37H30.542V35H30.5408V37ZM30.5358 37H30.5408V35H30.5358V37ZM30.5343 37H30.5358V35H30.5343V37ZM30.5328 37H30.5343V35H30.5328V37ZM30.5308 37H30.5328V35H30.5308V37ZM30.5265 37H30.5308V35H30.5265V37ZM30.5257 37H30.5265V35H30.5257V37ZM30.5206 37H30.5257V35H30.5206V37ZM30.5188 37H30.5206V35H30.5188V37ZM30.5184 37H30.5188V35H30.5184V37ZM30.5155 37H30.5184V35H30.5155V37ZM30.5103 37H30.5155V35H30.5103V37ZM30.5102 37H30.5103V35H30.5102V37ZM30.5051 37H30.5102V35H30.5051V37ZM30.505 37H30.5051V35H30.505V37ZM30.5017 37H30.505V35H30.5017V37ZM30.4999 37H30.5017V35H30.4999V37ZM30.4946 37H30.4999V35H30.4946V37ZM30.4931 37H30.4946V35H30.4931V37ZM30.4915 37H30.4931V35H30.4915V37ZM30.4893 37H30.4915V35H30.4893V37ZM30.4842 37H30.4893V35H30.4842V37ZM30.484 37H30.4842V35H30.484V37ZM30.4786 37H30.484V35H30.4786V37ZM30.4782 37H30.4786V35H30.4782V37ZM30.4752 37H30.4782V35H30.4752V37ZM30.4732 37H30.4752V35H30.4732V37ZM30.4678 37H30.4732V35H30.4678V37ZM30.4659 37H30.4678V35H30.4659V37ZM30.4651 37H30.4659V35H30.4651V37ZM30.4623 37H30.4651V35H30.4623V37ZM30.4569 37H30.4623V35H30.4569V37ZM30.4564 37H30.4569V35H30.4564V37ZM30.4523 37H30.4564V35H30.4523V37ZM30.4514 37H30.4523V35H30.4514V37ZM30.4468 37H30.4514V35H30.4468V37ZM30.4459 37H30.4468V35H30.4459V37ZM30.4404 37H30.4459V35H30.4404V37ZM30.4397 37H30.4404V35H30.4397V37ZM30.4369 37H30.4397V35H30.4369V37ZM30.4348 37H30.4369V35H30.4348V37ZM30.4293 37H30.4348V35H30.4293V37ZM30.4273 37H30.4293V35H30.4273V37ZM30.4268 37H30.4273V35H30.4268V37ZM30.4237 37H30.4268V35H30.4237V37ZM30.4181 37H30.4237V35H30.4181V37ZM30.4165 37H30.4181V35H30.4165V37ZM30.4151 37H30.4165V35H30.4151V37ZM30.4125 37H30.4151V35H30.4125V37ZM30.4069 37H30.4125V35H30.4069V37ZM30.4059 37H30.4069V35H30.4059V37ZM30.4032 37H30.4059V35H30.4032V37ZM30.4013 37H30.4032V35H30.4013V37ZM30.3957 37H30.4013V35H30.3957V37ZM30.3952 37H30.3957V35H30.3952V37ZM30.3915 37H30.3952V35H30.3915V37ZM30.3901 37H30.3915V35H30.3901V37ZM30.3844 37H30.3901V35H30.3844V37ZM30.3842 37H30.3844V35H30.3842V37ZM30.38 37H30.3842V35H30.38V37ZM30.3788 37H30.38V35H30.3788V37ZM30.3732 37H30.3788V35H30.3732V37ZM30.373 37H30.3732V35H30.373V37ZM30.3687 37H30.373V35H30.3687V37ZM30.3675 37H30.3687V35H30.3675V37ZM30.3619 37H30.3675V35H30.3619V37ZM30.3616 37H30.3619V35H30.3616V37ZM30.3577 37H30.3616V35H30.3577V37ZM30.3563 37H30.3577V35H30.3563V37ZM30.3507 37H30.3563V35H30.3507V37ZM30.35 37H30.3507V35H30.35V37ZM30.3469 37H30.35V35H30.3469V37ZM30.345 37H30.3469V35H30.345V37ZM30.3394 37H30.345V35H30.3394V37ZM30.3382 37H30.3394V35H30.3382V37ZM30.3363 37H30.3382V35H30.3363V37ZM30.3338 37H30.3363V35H30.3338V37ZM30.3282 37H30.3338V35H30.3282V37ZM30.3261 37H30.3282V35H30.3261V37ZM30.3259 37H30.3261V35H30.3259V37ZM30.3227 37H30.3259V35H30.3227V37ZM30.3171 37H30.3227V35H30.3171V37ZM30.3157 37H30.3171V35H30.3157V37ZM30.3138 37H30.3157V35H30.3138V37ZM30.3116 37H30.3138V35H30.3116V37ZM30.306 37H30.3116V35H30.306V37ZM30.3057 37H30.306V35H30.3057V37ZM30.3013 37H30.3057V35H30.3013V37ZM30.3005 37H30.3013V35H30.3005V37ZM30.2959 37H30.3005V35H30.2959V37ZM30.295 37H30.2959V35H30.295V37ZM30.2895 37H30.295V35H30.2895V37ZM30.2886 37H30.2895V35H30.2886V37ZM30.2864 37H30.2886V35H30.2864V37ZM30.2841 37H30.2864V35H30.2841V37ZM30.2786 37H30.2841V35H30.2786V37ZM30.2771 37H30.2786V35H30.2771V37ZM30.2756 37H30.2771V35H30.2756V37ZM30.2732 37H30.2756V35H30.2732V37ZM30.2679 37H30.2732V35H30.2679V37ZM30.2679 37H30.2679V35H30.2679V37ZM30.2625 37H30.2679V35H30.2625V37ZM30.2624 37H30.2625V35H30.2624V37ZM30.259 37H30.2624V35H30.259V37ZM30.2572 37H30.259V35H30.2572V37ZM30.2519 37H30.2572V35H30.2519V37ZM30.2503 37H30.2519V35H30.2503V37ZM30.2489 37H30.2503V35H30.2489V37ZM30.2466 37H30.2489V35H30.2466V37ZM30.2417 37H30.2466V35H30.2417V37ZM30.2414 37H30.2417V35H30.2414V37ZM30.2362 37H30.2414V35H30.2362V37ZM30.2353 37H30.2362V35H30.2353V37ZM30.2334 37H30.2353V35H30.2334V37ZM30.231 37H30.2334V35H30.231V37ZM30.2259 37H30.231V35H30.2259V37ZM30.2253 37H30.2259V35H30.2253V37ZM30.2213 37H30.2253V35H30.2213V37ZM30.2208 37H30.2213V35H30.2208V37ZM30.2173 37H30.2208V35H30.2173V37ZM30.2158 37H30.2173V35H30.2158V37ZM30.2108 37H30.2158V35H30.2108V37ZM30.2096 37H30.2108V35H30.2096V37ZM30.2072 37H30.2096V35H30.2072V37ZM30.2058 37H30.2072V35H30.2058V37ZM30.2021 37H30.2058V35H30.2021V37ZM30.2009 37H30.2021V35H30.2009V37ZM30.196 37H30.2009V35H30.196V37ZM30.1947 37H30.196V35H30.1947V37ZM30.1928 37H30.1947V35H30.1928V37ZM30.1912 37H30.1928V35H30.1912V37ZM30.1876 37H30.1912V35H30.1876V37ZM30.1865 37H30.1876V35H30.1865V37ZM30.1817 37H30.1865V35H30.1817V37ZM30.1806 37H30.1817V35H30.1806V37ZM30.1782 37H30.1806V35H30.1782V37ZM30.1771 37H30.1782V35H30.1771V37ZM30.1738 37H30.1771V35H30.1738V37ZM30.1725 37H30.1738V35H30.1725V37ZM30.1679 37H30.1725V35H30.1679V37ZM30.1672 37H30.1679V35H30.1672V37ZM30.1634 37H30.1672V35H30.1634V37ZM30.1633 37H30.1634V35H30.1633V37ZM30.1608 37H30.1633V35H30.1608V37ZM30.1589 37H30.1608V35H30.1589V37ZM30.1546 37H30.1589V35H30.1546V37ZM30.1546 37H30.1546V35H30.1546V37ZM30.1502 37H30.1546V35H30.1502V37ZM30.1486 37H30.1502V35H30.1486V37ZM30.1482 37H30.1486V35H30.1482V37ZM30.146 37H30.1482V35H30.146V37ZM30.1427 37H30.146V35H30.1427V37ZM30.1418 37H30.1427V35H30.1418V37ZM30.1376 37H30.1418V35H30.1376V37ZM30.1371 37H30.1376V35H30.1371V37ZM30.1335 37H30.1371V35H30.1335V37ZM30.1328 37H30.1335V35H30.1328V37ZM30.1316 37H30.1328V35H30.1316V37ZM30.1295 37H30.1316V35H30.1295V37ZM30.1263 37H30.1295V35H30.1263V37ZM30.1256 37H30.1263V35H30.1256V37ZM30.1217 37H30.1256V35H30.1217V37ZM30.1211 37H30.1217V35H30.1211V37ZM30.1179 37H30.1211V35H30.1179V37ZM30.1172 37H30.1179V35H30.1172V37ZM30.1162 37H30.1172V35H30.1162V37ZM30.1142 37H30.1162V35H30.1142V37ZM30.1114 37H30.1142V35H30.1114V37ZM30.1106 37H30.1114V35H30.1106V37ZM30.107 37H30.1106V35H30.107V37ZM30.1068 37H30.107V35H30.1068V37ZM30.1035 37H30.1068V35H30.1035V37ZM30.1023 37H30.1035V35H30.1023V37ZM30.1014 37H30.1023V35H30.1014V37ZM30.1001 37H30.1014V35H30.1001V37ZM30.0981 37H30.1001V35H30.0981V37ZM30.0968 37H30.0981V35H30.0968V37ZM30.0939 37H30.0968V35H30.0939V37ZM30.0935 37H30.0939V35H30.0935V37ZM30.0904 37H30.0935V35H30.0904V37ZM30.09 37H30.0904V35H30.09V37ZM30.0873 37H30.09V35H30.0873V37ZM30.0862 37H30.0873V35H30.0862V37ZM30.0853 37H30.0862V35H30.0853V37ZM30.0843 37H30.0853V35H30.0843V37ZM30.0826 37H30.0843V35H30.0826V37ZM30.0814 37H30.0826V35H30.0814V37ZM30.0792 37H30.0814V35H30.0792V37ZM30.0786 37H30.0792V35H30.0786V37ZM30.0759 37H30.0786V35H30.0759V37ZM30.0758 37H30.0759V35H30.0758V37ZM30.0732 37H30.0758V35H30.0732V37ZM30.0727 37H30.0732V35H30.0727V37ZM30.0706 37H30.0727V35H30.0706V37ZM30.0698 37H30.0706V35H30.0698V37ZM30.0689 37H30.0698V35H30.0689V37ZM30.0682 37H30.0689V35H30.0682V37ZM30.0669 37H30.0682V35H30.0669V37ZM30.0658 37H30.0669V35H30.0658V37ZM30.0643 37H30.0658V35H30.0643V37ZM30.0636 37H30.0643V35H30.0636V37ZM30.0618 37H30.0636V35H30.0618V37ZM30.0614 37H30.0618V35H30.0614V37ZM30.0594 37H30.0614V35H30.0594V37ZM30.0594 37H30.0594V35H30.0594V37ZM30.0574 37H30.0594V35H30.0574V37ZM30.0572 37H30.0574V35H30.0572V37ZM30.0556 37H30.0572V35H30.0556V37ZM30.0551 37H30.0556V35H30.0551V37ZM30.0538 37H30.0551V35H30.0538V37ZM30.0532 37H30.0538V35H30.0532V37ZM30.0523 37H30.0532V35H30.0523V37ZM30.0522 37H30.0523V35H30.0522V37ZM30.0515 37H30.0522V35H30.0515V37ZM30.0506 37H30.0515V35H30.0506V37ZM30.0498 37H30.0506V35H30.0498V37ZM30.0492 37H30.0498V35H30.0492V37ZM30.0484 37H30.0492V35H30.0484V37ZM30.0479 37H30.0484V35H30.0479V37ZM30.047 37H30.0479V35H30.047V37ZM30.0467 37H30.047V35H30.0467V37ZM30.0458 37H30.0467V35H30.0458V37ZM30.0456 37H30.0458V35H30.0456V37ZM30.0448 37H30.0456V35H30.0448V37ZM30.0446 37H30.0448V35H30.0446V37ZM30.0438 37H30.0446V35H30.0438V37ZM30.0438 37H30.0438V35H30.0438V37ZM30.0431 37H30.0438V35H30.0431V37ZM30.043 37H30.0431V35H30.043V37ZM30.0424 37H30.043V35H30.0424V37ZM30.0419 37H30.0424V35H30.0419V37ZM30.0415 37H30.0419V35H30.0415V37ZM30.0415 37H30.0415V35H30.0415V37ZM30.0413 37H30.0415V35H30.0413V37ZM30.0412 37H30.0413V35H30.0412V37ZM30.0355 37H30.0412V35H30.0355V37ZM30.0184 37H30.0355V35H30.0184V37ZM30.001 37H30.0184V35H30.001V37ZM29.9834 37H30.001V35H29.9834V37ZM29.9655 37H29.9834V35H29.9655V37ZM29.9474 37H29.9655V35H29.9474V37ZM29.929 37H29.9474V35H29.929V37ZM29.9103 37H29.929V35H29.9103V37ZM29.8914 37H29.9103V35H29.8914V37ZM29.8722 37H29.8914V35H29.8722V37ZM29.8527 37H29.8722V35H29.8527V37ZM29.833 37H29.8527V35H29.833V37ZM29.813 37H29.833V35H29.813V37ZM29.7927 37H29.813V35H29.7927V37ZM29.7722 37H29.7927V35H29.7722V37ZM29.7514 37H29.7722V35H29.7514V37ZM29.7303 37H29.7514V35H29.7303V37ZM29.7089 37H29.7303V35H29.7089V37ZM29.6872 37H29.7089V35H29.6872V37ZM29.6653 37H29.6872V35H29.6653V37ZM29.6431 37H29.6653V35H29.6431V37ZM27.6431 35C27.6431 36.1046 28.5385 37 29.6431 37V35H27.6431ZM29.6431 33C28.5385 33 27.6431 33.8954 27.6431 35H29.6431V33ZM29.6653 33H29.6431V35H29.6653V33ZM29.6872 33H29.6653V35H29.6872V33ZM29.7089 33H29.6872V35H29.7089V33ZM29.7303 33H29.7089V35H29.7303V33ZM29.7514 33H29.7303V35H29.7514V33ZM29.7722 33H29.7514V35H29.7722V33ZM29.7927 33H29.7722V35H29.7927V33ZM29.813 33H29.7927V35H29.813V33ZM29.833 33H29.813V35H29.833V33ZM29.8527 33H29.833V35H29.8527V33ZM29.8722 33H29.8527V35H29.8722V33ZM29.8914 33H29.8722V35H29.8914V33ZM29.9103 33H29.8914V35H29.9103V33ZM29.929 33H29.9103V35H29.929V33ZM29.9474 33H29.929V35H29.9474V33ZM29.9655 33H29.9474V35H29.9655V33ZM29.9834 33H29.9655V35H29.9834V33ZM30.001 33H29.9834V35H30.001V33ZM30.0184 33H30.001V35H30.0184V33ZM30.0355 33H30.0184V35H30.0355V33ZM30.0411 33H30.0355V35H30.0411V33ZM30.0413 33H30.0411V35H30.0413V33ZM30.0415 33H30.0413V35H30.0415V33ZM30.0415 33H30.0415V35H30.0415V33ZM30.0419 33H30.0415V35H30.0419V33ZM30.0424 33H30.0419V35H30.0424V33ZM30.043 33H30.0424V35H30.043V33ZM30.0431 33H30.043V35H30.0431V33ZM30.0438 33H30.0431V35H30.0438V33ZM30.0438 33H30.0438V35H30.0438V33ZM30.0446 33H30.0438V35H30.0446V33ZM30.0448 33H30.0446V35H30.0448V33ZM30.0456 33H30.0448V35H30.0456V33ZM30.0458 33H30.0456V35H30.0458V33ZM30.0467 33H30.0458V35H30.0467V33ZM30.047 33H30.0467V35H30.047V33ZM30.0479 33H30.047V35H30.0479V33ZM30.0484 33H30.0479V35H30.0484V33ZM30.0492 33H30.0484V35H30.0492V33ZM30.0498 33H30.0492V35H30.0498V33ZM30.0506 33H30.0498V35H30.0506V33ZM30.0515 33H30.0506V35H30.0515V33ZM30.0522 33H30.0515V35H30.0522V33ZM30.0523 33H30.0522V35H30.0523V33ZM30.0532 33H30.0523V35H30.0532V33ZM30.0538 33H30.0532V35H30.0538V33ZM30.0551 33H30.0538V35H30.0551V33ZM30.0556 33H30.0551V35H30.0556V33ZM30.0572 33H30.0556V35H30.0572V33ZM30.0574 33H30.0572V35H30.0574V33ZM30.0594 33H30.0574V35H30.0594V33ZM30.0594 33H30.0594V35H30.0594V33ZM30.0614 33H30.0594V35H30.0614V33ZM30.0618 33H30.0614V35H30.0618V33ZM30.0636 33H30.0618V35H30.0636V33ZM30.0643 33H30.0636V35H30.0643V33ZM30.0658 33H30.0643V35H30.0658V33ZM30.0669 33H30.0658V35H30.0669V33ZM30.0682 33H30.0669V35H30.0682V33ZM30.0689 33H30.0682V35H30.0689V33ZM30.0698 33H30.0689V35H30.0698V33ZM30.0706 33H30.0698V35H30.0706V33ZM30.0727 33H30.0706V35H30.0727V33ZM30.0732 33H30.0727V35H30.0732V33ZM30.0758 33H30.0732V35H30.0758V33ZM30.0759 33H30.0758V35H30.0759V33ZM30.0786 33H30.0759V35H30.0786V33ZM30.0792 33H30.0786V35H30.0792V33ZM30.0814 33H30.0792V35H30.0814V33ZM30.0826 33H30.0814V35H30.0826V33ZM30.0843 33H30.0826V35H30.0843V33ZM30.0853 33H30.0843V35H30.0853V33ZM30.0862 33H30.0853V35H30.0862V33ZM30.0873 33H30.0862V35H30.0873V33ZM30.09 33H30.0873V35H30.09V33ZM30.0904 33H30.09V35H30.0904V33ZM30.0935 33H30.0904V35H30.0935V33ZM30.0939 33H30.0935V35H30.0939V33ZM30.0968 33H30.0939V35H30.0968V33ZM30.0981 33H30.0968V35H30.0981V33ZM30.1001 33H30.0981V35H30.1001V33ZM30.1014 33H30.1001V35H30.1014V33ZM30.1023 33H30.1014V35H30.1023V33ZM30.1035 33H30.1023V35H30.1035V33ZM30.1068 33H30.1035V35H30.1068V33ZM30.107 33H30.1068V35H30.107V33ZM30.1106 33H30.107V35H30.1106V33ZM30.1114 33H30.1106V35H30.1114V33ZM30.1142 33H30.1114V35H30.1142V33ZM30.1162 33H30.1142V35H30.1162V33ZM30.1172 33H30.1162V35H30.1172V33ZM30.1179 33H30.1172V35H30.1179V33ZM30.1211 33H30.1179V35H30.1211V33ZM30.1217 33H30.1211V35H30.1217V33ZM30.1256 33H30.1217V35H30.1256V33ZM30.1263 33H30.1256V35H30.1263V33ZM30.1295 33H30.1263V35H30.1295V33ZM30.1316 33H30.1295V35H30.1316V33ZM30.1328 33H30.1316V35H30.1328V33ZM30.1335 33H30.1328V35H30.1335V33ZM30.1371 33H30.1335V35H30.1371V33ZM30.1376 33H30.1371V35H30.1376V33ZM30.1418 33H30.1376V35H30.1418V33ZM30.1427 33H30.1418V35H30.1427V33ZM30.146 33H30.1427V35H30.146V33ZM30.1482 33H30.146V35H30.1482V33ZM30.1486 33H30.1482V35H30.1486V33ZM30.1502 33H30.1486V35H30.1502V33ZM30.1546 33H30.1502V35H30.1546V33ZM30.1546 33H30.1546V35H30.1546V33ZM30.1589 33H30.1546V35H30.1589V33ZM30.1608 33H30.1589V35H30.1608V33ZM30.1633 33H30.1608V35H30.1633V33ZM30.1634 33H30.1633V35H30.1634V33ZM30.1672 33H30.1634V35H30.1672V33ZM30.1679 33H30.1672V35H30.1679V33ZM30.1725 33H30.1679V35H30.1725V33ZM30.1738 33H30.1725V35H30.1738V33ZM30.1771 33H30.1738V35H30.1771V33ZM30.1782 33H30.1771V35H30.1782V33ZM30.1806 33H30.1782V35H30.1806V33ZM30.1817 33H30.1806V35H30.1817V33ZM30.1865 33H30.1817V35H30.1865V33ZM30.1876 33H30.1865V35H30.1876V33ZM30.1912 33H30.1876V35H30.1912V33ZM30.1928 33H30.1912V35H30.1928V33ZM30.1947 33H30.1928V35H30.1947V33ZM30.196 33H30.1947V35H30.196V33ZM30.2009 33H30.196V35H30.2009V33ZM30.2021 33H30.2009V35H30.2021V33ZM30.2058 33H30.2021V35H30.2058V33ZM30.2072 33H30.2058V35H30.2072V33ZM30.2096 33H30.2072V35H30.2096V33ZM30.2108 33H30.2096V35H30.2108V33ZM30.2158 33H30.2108V35H30.2158V33ZM30.2173 33H30.2158V35H30.2173V33ZM30.2208 33H30.2173V35H30.2208V33ZM30.2213 33H30.2208V35H30.2213V33ZM30.2253 33H30.2213V35H30.2253V33ZM30.2259 33H30.2253V35H30.2259V33ZM30.231 33H30.2259V35H30.231V33ZM30.2334 33H30.231V35H30.2334V33ZM30.2353 33H30.2334V35H30.2353V33ZM30.2362 33H30.2353V35H30.2362V33ZM30.2414 33H30.2362V35H30.2414V33ZM30.2417 33H30.2414V35H30.2417V33ZM30.2466 33H30.2417V35H30.2466V33ZM30.2489 33H30.2466V35H30.2489V33ZM30.2503 33H30.2489V35H30.2503V33ZM30.2519 33H30.2503V35H30.2519V33ZM30.2572 33H30.2519V35H30.2572V33ZM30.259 33H30.2572V35H30.259V33ZM30.2624 33H30.259V35H30.2624V33ZM30.2625 33H30.2624V35H30.2625V33ZM30.2679 33H30.2625V35H30.2679V33ZM30.2679 33H30.2679V35H30.2679V33ZM30.2732 33H30.2679V35H30.2732V33ZM30.2756 33H30.2732V35H30.2756V33ZM30.2771 33H30.2756V35H30.2771V33ZM30.2786 33H30.2771V35H30.2786V33ZM30.2841 33H30.2786V35H30.2841V33ZM30.2864 33H30.2841V35H30.2864V33ZM30.2886 33H30.2864V35H30.2886V33ZM30.2895 33H30.2886V35H30.2895V33ZM30.295 33H30.2895V35H30.295V33ZM30.2959 33H30.295V35H30.2959V33ZM30.3005 33H30.2959V35H30.3005V33ZM30.3013 33H30.3005V35H30.3013V33ZM30.3057 33H30.3013V35H30.3057V33ZM30.306 33H30.3057V35H30.306V33ZM30.3116 33H30.306V35H30.3116V33ZM30.3138 33H30.3116V35H30.3138V33ZM30.3157 33H30.3138V35H30.3157V33ZM30.3171 33H30.3157V35H30.3171V33ZM30.3227 33H30.3171V35H30.3227V33ZM30.3259 33H30.3227V35H30.3259V33ZM30.3261 33H30.3259V35H30.3261V33ZM30.3282 33H30.3261V35H30.3282V33ZM30.3338 33H30.3282V35H30.3338V33ZM30.3363 33H30.3338V35H30.3363V33ZM30.3382 33H30.3363V35H30.3382V33ZM30.3394 33H30.3382V35H30.3394V33ZM30.345 33H30.3394V35H30.345V33ZM30.3469 33H30.345V35H30.3469V33ZM30.35 33H30.3469V35H30.35V33ZM30.3507 33H30.35V35H30.3507V33ZM30.3563 33H30.3507V35H30.3563V33ZM30.3577 33H30.3563V35H30.3577V33ZM30.3616 33H30.3577V35H30.3616V33ZM30.3619 33H30.3616V35H30.3619V33ZM30.3675 33H30.3619V35H30.3675V33ZM30.3687 33H30.3675V35H30.3687V33ZM30.373 33H30.3687V35H30.373V33ZM30.3732 33H30.373V35H30.3732V33ZM30.3788 33H30.3732V35H30.3788V33ZM30.38 33H30.3788V35H30.38V33ZM30.3842 33H30.38V35H30.3842V33ZM30.3844 33H30.3842V35H30.3844V33ZM30.3901 33H30.3844V35H30.3901V33ZM30.3915 33H30.3901V35H30.3915V33ZM30.3952 33H30.3915V35H30.3952V33ZM30.3957 33H30.3952V35H30.3957V33ZM30.4013 33H30.3957V35H30.4013V33ZM30.4032 33H30.4013V35H30.4032V33ZM30.4059 33H30.4032V35H30.4059V33ZM30.4069 33H30.4059V35H30.4069V33ZM30.4125 33H30.4069V35H30.4125V33ZM30.4151 33H30.4125V35H30.4151V33ZM30.4165 33H30.4151V35H30.4165V33ZM30.4181 33H30.4165V35H30.4181V33ZM30.4237 33H30.4181V35H30.4237V33ZM30.4268 33H30.4237V35H30.4268V33ZM30.4273 33H30.4268V35H30.4273V33ZM30.4293 33H30.4273V35H30.4293V33ZM30.4348 33H30.4293V35H30.4348V33ZM30.4369 33H30.4348V35H30.4369V33ZM30.4397 33H30.4369V35H30.4397V33ZM30.4404 33H30.4397V35H30.4404V33ZM30.4459 33H30.4404V35H30.4459V33ZM30.4468 33H30.4459V35H30.4468V33ZM30.4514 33H30.4468V35H30.4514V33ZM30.4523 33H30.4514V35H30.4523V33ZM30.4564 33H30.4523V35H30.4564V33ZM30.4569 33H30.4564V35H30.4569V33ZM30.4623 33H30.4569V35H30.4623V33ZM30.4651 33H30.4623V35H30.4651V33ZM30.4659 33H30.4651V35H30.4659V33ZM30.4678 33H30.4659V35H30.4678V33ZM30.4732 33H30.4678V35H30.4732V33ZM30.4752 33H30.4732V35H30.4752V33ZM30.4782 33H30.4752V35H30.4782V33ZM30.4786 33H30.4782V35H30.4786V33ZM30.484 33H30.4786V35H30.484V33ZM30.4842 33H30.484V35H30.4842V33ZM30.4893 33H30.4842V35H30.4893V33ZM30.4915 33H30.4893V35H30.4915V33ZM30.4931 33H30.4915V35H30.4931V33ZM30.4946 33H30.4931V35H30.4946V33ZM30.4999 33H30.4946V35H30.4999V33ZM30.5017 33H30.4999V35H30.5017V33ZM30.505 33H30.5017V35H30.505V33ZM30.5051 33H30.505V35H30.5051V33ZM30.5102 33H30.5051V35H30.5102V33ZM30.5103 33H30.5102V35H30.5103V33ZM30.5155 33H30.5103V35H30.5155V33ZM30.5184 33H30.5155V35H30.5184V33ZM30.5188 33H30.5184V35H30.5188V33ZM30.5206 33H30.5188V35H30.5206V33ZM30.5257 33H30.5206V35H30.5257V33ZM30.5265 33H30.5257V35H30.5265V33ZM30.5308 33H30.5265V35H30.5308V33ZM30.5328 33H30.5308V35H30.5328V33ZM30.5343 33H30.5328V35H30.5343V33ZM30.5358 33H30.5343V35H30.5358V33ZM30.5408 33H30.5358V35H30.5408V33ZM30.542 33H30.5408V35H30.542V33ZM30.5457 33H30.542V35H30.5457V33ZM30.547 33H30.5457V35H30.547V33ZM30.5494 33H30.547V35H30.5494V33ZM30.5506 33H30.5494V35H30.5506V33ZM30.5554 33H30.5506V35H30.5554V33ZM30.5567 33H30.5554V35H30.5567V33ZM30.5602 33H30.5567V35H30.5602V33ZM30.5615 33H30.5602V35H30.5615V33ZM30.5638 33H30.5615V35H30.5638V33ZM30.565 33H30.5638V35H30.565V33ZM30.5697 33H30.565V35H30.5697V33ZM30.5707 33H30.5697V35H30.5707V33ZM30.5743 33H30.5707V35H30.5743V33ZM30.5763 33H30.5743V35H30.5763V33ZM30.5774 33H30.5763V35H30.5774V33ZM30.5789 33H30.5774V35H30.5789V33ZM30.5834 33H30.5789V35H30.5834V33ZM30.5839 33H30.5834V35H30.5839V33ZM30.5879 33H30.5839V35H30.5879V33ZM30.5902 33H30.5879V35H30.5902V33ZM30.5912 33H30.5902V35H30.5912V33ZM30.5923 33H30.5912V35H30.5923V33ZM30.5964 33H30.5923V35H30.5964V33ZM30.5966 33H30.5964V35H30.5966V33ZM30.6009 33H30.5966V35H30.6009V33ZM30.6023 33H30.6009V35H30.6023V33ZM30.6052 33H30.6023V35H30.6052V33ZM30.6064 33H30.6052V35H30.6064V33ZM30.6081 33H30.6064V35H30.6081V33ZM30.6093 33H30.6081V35H30.6093V33ZM30.6134 33H30.6093V35H30.6134V33ZM30.6137 33H30.6134V35H30.6137V33ZM30.6175 33H30.6137V35H30.6175V33ZM30.6191 33H30.6175V35H30.6191V33ZM30.6214 33H30.6191V35H30.6214V33ZM30.6219 33H30.6214V35H30.6219V33ZM30.6243 33H30.6219V35H30.6243V33ZM30.6253 33H30.6243V35H30.6253V33ZM30.6291 33H30.6253V35H30.6291V33ZM30.6294 33H30.6291V35H30.6294V33ZM30.6329 33H30.6294V35H30.6329V33ZM30.6343 33H30.6329V35H30.6343V33ZM30.6366 33H30.6343V35H30.6366V33ZM30.6376 33H30.6366V35H30.6376V33ZM30.639 33H30.6376V35H30.639V33ZM30.6402 33H30.639V35H30.6402V33ZM30.6436 33H30.6402V35H30.6436V33ZM30.6437 33H30.6436V35H30.6437V33ZM30.6471 33H30.6437V35H30.6471V33ZM30.648 33H30.6471V35H30.648V33ZM30.6505 33H30.648V35H30.6505V33ZM30.6522 33H30.6505V35H30.6522V33ZM30.6535 33H30.6522V35H30.6535V33ZM30.6538 33H30.6535V35H30.6538V33ZM30.6562 33H30.6538V35H30.6562V33ZM30.657 33H30.6562V35H30.657V33ZM30.6601 33H30.657V35H30.6601V33ZM30.6631 33H30.6601V35H30.6631V33ZM30.6638 33H30.6631V35H30.6638V33ZM30.6661 33H30.6638V35H30.6661V33ZM30.6674 33H30.6661V35H30.6674V33ZM30.6689 33H30.6674V35H30.6689V33ZM30.6697 33H30.6689V35H30.6697V33ZM30.6707 33H30.6697V35H30.6707V33ZM30.6717 33H30.6707V35H30.6717V33ZM30.674 33H30.6717V35H30.674V33ZM30.6744 33H30.674V35H30.6744V33ZM30.6769 33H30.6744V35H30.6769V33ZM30.677 33H30.6769V35H30.677V33ZM30.6794 33H30.677V35H30.6794V33ZM30.68 33H30.6794V35H30.68V33ZM30.6818 33H30.68V35H30.6818V33ZM30.6827 33H30.6818V35H30.6827V33ZM30.6841 33H30.6827V35H30.6841V33ZM30.6853 33H30.6841V35H30.6853V33ZM30.6862 33H30.6853V35H30.6862V33ZM30.6863 33H30.6862V35H30.6863V33ZM30.6878 33H30.6863V35H30.6878V33ZM30.6884 33H30.6878V35H30.6884V33ZM30.6901 33H30.6884V35H30.6901V33ZM30.6904 33H30.6901V35H30.6904V33ZM30.6922 33H30.6904V35H30.6922V33ZM30.6923 33H30.6922V35H30.6923V33ZM30.6941 33H30.6923V35H30.6941V33ZM30.6942 33H30.6941V35H30.6942V33ZM30.6958 33H30.6942V35H30.6958V33ZM30.6961 33H30.6958V35H30.6961V33ZM30.6973 33H30.6961V35H30.6973V33ZM30.6978 33H30.6973V35H30.6978V33ZM30.6988 33H30.6978V35H30.6988V33ZM30.6993 33H30.6988V35H30.6993V33ZM30.7002 33H30.6993V35H30.7002V33ZM30.7008 33H30.7002V35H30.7008V33ZM30.7014 33H30.7008V35H30.7014V33ZM30.702 33H30.7014V35H30.702V33ZM30.7025 33H30.702V35H30.7025V33ZM30.7029 33H30.7025V35H30.7029V33ZM30.7032 33H30.7029V35H30.7032V33ZM30.7036 33H30.7032V35H30.7036V33ZM30.7042 33H30.7036V35H30.7042V33ZM30.7045 33H30.7042V35H30.7045V33ZM30.705 33H30.7045V35H30.705V33ZM30.7053 33H30.705V35H30.7053V33ZM30.7058 33H30.7053V35H30.7058V33ZM30.7059 33H30.7058V35H30.7059V33ZM30.7064 33H30.7059V35H30.7064V33ZM30.7065 33H30.7064V35H30.7065V33ZM30.7068 33H30.7065V35H30.7068V33ZM30.7069 33H30.7068V35H30.7069V33ZM30.7072 33H30.7069V35H30.7072V33ZM30.7072 33H30.7072V35H30.7072V33ZM30.7074 33H30.7072V35H30.7074V33ZM30.7074 33H30.7074V35H30.7074V33ZM30.7074 33H30.7074V35H30.7074V33ZM30.7198 33H30.7074V35H30.7198V33ZM30.737 33H30.7198V35H30.737V33ZM30.7545 33H30.737V35H30.7545V33ZM30.7722 33H30.7545V35H30.7722V33ZM30.7902 33H30.7722V35H30.7902V33ZM30.8085 33H30.7902V35H30.8085V33ZM30.827 33H30.8085V35H30.827V33ZM30.8457 33H30.827V35H30.8457V33ZM30.8648 33H30.8457V35H30.8648V33ZM30.8841 33H30.8648V35H30.8841V33ZM30.9036 33H30.8841V35H30.9036V33ZM30.9235 33H30.9036V35H30.9235V33ZM30.9436 33H30.9235V35H30.9436V33ZM30.9639 33H30.9436V35H30.9639V33ZM30.9846 33H30.9639V35H30.9846V33ZM31.0055 33H30.9846V35H31.0055V33ZM31.0267 33H31.0055V35H31.0267V33ZM31.0482 33H31.0267V35H31.0482V33ZM31.07 33H31.0482V35H31.07V33ZM31.092 33H31.07V35H31.092V33ZM31.1143 33H31.092V35H31.1143V33ZM31.1369 33H31.1143V35H31.1369V33ZM31.1598 33H31.1369V35H31.1598V33ZM31.183 33H31.1598V35H31.183V33ZM31.2065 33H31.183V35H31.2065V33ZM31.2302 33H31.2065V35H31.2302V33ZM31.2543 33H31.2302V35H31.2543V33ZM31.2786 33H31.2543V35H31.2786V33ZM31.3033 33H31.2786V35H31.3033V33ZM31.3282 33H31.3033V35H31.3282V33ZM31.3534 33H31.3282V35H31.3534V33ZM31.3789 33H31.3534V35H31.3789V33ZM31.4047 33H31.3789V35H31.4047V33ZM31.4309 33H31.4047V35H31.4309V33ZM31.4573 33H31.4309V35H31.4573V33ZM31.484 33H31.4573V35H31.484V33ZM31.511 33H31.484V35H31.511V33ZM31.5384 33H31.511V35H31.5384V33ZM31.566 33H31.5384V35H31.566V33ZM31.594 33H31.566V35H31.594V33ZM31.6223 33H31.594V35H31.6223V33ZM31.6508 33H31.6223V35H31.6508V33ZM31.6797 33H31.6508V35H31.6797V33ZM31.7089 33H31.6797V35H31.7089V33ZM31.7385 33H31.7089V35H31.7385V33ZM31.7683 33H31.7385V35H31.7683V33ZM31.7985 33H31.7683V35H31.7985V33ZM31.8289 33H31.7985V35H31.8289V33ZM31.8597 33H31.8289V35H31.8597V33ZM31.8909 33H31.8597V35H31.8909V33ZM31.9223 33H31.8909V35H31.9223V33ZM31.9541 33H31.9223V35H31.9541V33ZM31.9862 33H31.9541V35H31.9862V33ZM32.0186 33H31.9862V35H32.0186V33ZM32.0514 33H32.0186V35H32.0514V33ZM32.0845 33H32.0514V35H32.0845V33ZM32.1179 33H32.0845V35H32.1179V33ZM32.1517 33H32.1179V35H32.1517V33ZM32.1858 33H32.1517V35H32.1858V33ZM32.2202 33H32.1858V35H32.2202V33ZM32.255 33H32.2202V35H32.255V33ZM32.2901 33H32.255V35H32.2901V33ZM32.3256 33H32.2901V35H32.3256V33ZM32.3614 33H32.3256V35H32.3614V33ZM32.3976 33H32.3614V35H32.3976V33ZM32.4341 33H32.3976V35H32.4341V33ZM32.4709 33H32.4341V35H32.4709V33ZM32.5081 33H32.4709V35H32.5081V33ZM32.5457 33H32.5081V35H32.5457V33ZM32.5836 33H32.5457V35H32.5836V33ZM32.6218 33H32.5836V35H32.6218V33ZM32.6604 33H32.6218V35H32.6604V33ZM32.6994 33H32.6604V35H32.6994V33ZM32.7387 33H32.6994V35H32.7387V33ZM32.7784 33H32.7387V35H32.7784V33ZM32.8184 33H32.7784V35H32.8184V33ZM32.8588 33H32.8184V35H32.8588V33ZM32.8996 33H32.8588V35H32.8996V33ZM32.9407 33H32.8996V35H32.9407V33ZM32.9822 33H32.9407V35H32.9822V33ZM33.0241 33H32.9822V35H33.0241V33ZM33.0663 33H33.0241V35H33.0663V33ZM33.1089 33H33.0663V35H33.1089V33ZM33.1519 33H33.1089V35H33.1519V33ZM33.1953 33H33.1519V35H33.1953V33ZM33.239 33H33.1953V35H33.239V33ZM33.2831 33H33.239V35H33.2831V33ZM33.3276 33H33.2831V35H33.3276V33ZM33.3724 33H33.3276V35H33.3724V33ZM33.4177 33H33.3724V35H33.4177V33ZM33.4633 33H33.4177V35H33.4633V33ZM33.5093 33H33.4633V35H33.5093V33ZM33.5557 33H33.5093V35H33.5557V33ZM33.6025 33H33.5557V35H33.6025V33ZM33.6497 33H33.6025V35H33.6497V33ZM33.6972 33H33.6497V35H33.6972V33ZM33.7452 33H33.6972V35H33.7452V33ZM33.7935 33H33.7452V35H33.7935V33ZM33.8422 33H33.7935V35H33.8422V33ZM33.8914 33H33.8422V35H33.8914V33ZM33.9409 33H33.8914V35H33.9409V33ZM33.9908 33H33.9409V35H33.9908V33ZM34.0411 33H33.9908V35H34.0411V33ZM34.0919 33H34.0411V35H34.0919V33ZM34.143 33H34.0919V35H34.143V33ZM34.1945 33H34.143V35H34.1945V33ZM34.2465 33H34.1945V35H34.2465V33ZM34.2988 33H34.2465V35H34.2988V33ZM34.3516 33H34.2988V35H34.3516V33ZM34.4047 33H34.3516V35H34.4047V33ZM34.4583 33H34.4047V35H34.4583V33ZM34.5123 33H34.4583V35H34.5123V33ZM34.5667 33H34.5123V35H34.5667V33ZM34.6215 33H34.5667V35H34.6215V33ZM34.6767 33H34.6215V35H34.6767V33ZM34.7323 33H34.6767V35H34.7323V33ZM34.7884 33H34.7323V35H34.7884V33ZM34.8449 33H34.7884V35H34.8449V33ZM34.9018 33H34.8449V35H34.9018V33ZM34.9591 33H34.9018V35H34.9591V33ZM35.0169 33H34.9591V35H35.0169V33ZM35.0751 33H35.0169V35H35.0751V33ZM35.1337 33H35.0751V35H35.1337V33ZM35.1927 33H35.1337V35H35.1927V33ZM35.2522 33H35.1927V35H35.2522V33ZM35.3121 33H35.2522V35H35.3121V33ZM35.3724 33H35.3121V35H35.3724V33ZM35.4332 33H35.3724V35H35.4332V33ZM35.4944 33H35.4332V35H35.4944V33ZM35.5561 33H35.4944V35H35.5561V33ZM35.6182 33H35.5561V35H35.6182V33ZM35.6807 33H35.6182V35H35.6807V33ZM35.7437 33H35.6807V35H35.7437V33ZM35.8071 33H35.7437V35H35.8071V33ZM35.8709 33H35.8071V35H35.8709V33ZM35.9352 33H35.8709V35H35.9352V33ZM36 33H35.9352V35H36V33ZM38 31C38 32.1046 37.1046 33 36 33V35C38.2091 35 40 33.2091 40 31H38ZM38 9V31H40V9H38ZM36 7C37.1046 7 38 7.89543 38 9H40C40 6.79086 38.2091 5 36 5V7ZM16.5712 7H36V5H16.5712V7ZM14.5712 5C14.5712 6.10457 15.4667 7 16.5712 7V5H14.5712ZM4 9C4 7.89543 4.89543 7 6 7V5C3.79086 5 2 6.79086 2 9H4ZM4 31V9H2V31H4ZM6 33C4.89543 33 4 32.1046 4 31H2C2 33.2091 3.79086 35 6 35V33ZM6.00689 33H6V35H6.00689V33ZM6.01409 33H6.00689V35H6.01409V33ZM6.0216 33H6.01409V35H6.0216V33ZM6.02942 33H6.0216V35H6.02942V33ZM6.03755 33H6.02942V35H6.03755V33ZM6.04599 33H6.03755V35H6.04599V33ZM6.05473 33H6.04599V35H6.05473V33ZM6.06378 33H6.05473V35H6.06378V33ZM6.07313 33H6.06378V35H6.07313V33ZM6.08279 33H6.07313V35H6.08279V33ZM6.09275 33H6.08279V35H6.09275V33ZM6.103 33H6.09275V35H6.103V33ZM6.11356 33H6.103V35H6.11356V33ZM6.12441 33H6.11356V35H6.12441V33ZM6.13556 33H6.12441V35H6.13556V33ZM6.14701 33H6.13556V35H6.14701V33ZM6.15875 33H6.14701V35H6.15875V33ZM6.17078 33H6.15875V35H6.17078V33ZM6.1831 33H6.17078V35H6.1831V33ZM6.19572 33H6.1831V35H6.19572V33ZM6.20862 33H6.19572V35H6.20862V33ZM6.22181 33H6.20862V35H6.22181V33ZM6.23528 33H6.22181V35H6.23528V33ZM6.24904 33H6.23528V35H6.24904V33ZM6.26309 33H6.24904V35H6.26309V33ZM6.27741 33H6.26309V35H6.27741V33ZM6.29202 33H6.27741V35H6.29202V33ZM6.30691 33H6.29202V35H6.30691V33ZM6.32208 33H6.30691V35H6.32208V33ZM6.33752 33H6.32208V35H6.33752V33ZM6.35325 33H6.33752V35H6.35325V33ZM6.36924 33H6.35325V35H6.36924V33ZM6.38551 33H6.36924V35H6.38551V33ZM6.40205 33H6.38551V35H6.40205V33ZM6.41887 33H6.40205V35H6.41887V33ZM6.43595 33H6.41887V35H6.43595V33ZM6.4533 33H6.43595V35H6.4533V33ZM6.47092 33H6.4533V35H6.47092V33ZM6.48881 33H6.47092V35H6.48881V33ZM6.50696 33H6.48881V35H6.50696V33ZM6.52538 33H6.50696V35H6.52538V33ZM6.54406 33H6.52538V35H6.54406V33ZM6.563 33H6.54406V35H6.563V33ZM6.58219 33H6.563V35H6.58219V33ZM6.60165 33H6.58219V35H6.60165V33ZM6.62137 33H6.60165V35H6.62137V33ZM6.64134 33H6.62137V35H6.64134V33ZM6.66157 33H6.64134V35H6.66157V33ZM6.68205 33H6.66157V35H6.68205V33ZM6.70278 33H6.68205V35H6.70278V33ZM6.72377 33H6.70278V35H6.72377V33ZM6.745 33H6.72377V35H6.745V33ZM6.76648 33H6.745V35H6.76648V33ZM6.78821 33H6.76648V35H6.78821V33ZM6.81019 33H6.78821V35H6.81019V33ZM6.83241 33H6.81019V35H6.83241V33ZM6.85488 33H6.83241V35H6.85488V33ZM6.87759 33H6.85488V35H6.87759V33ZM6.90054 33H6.87759V35H6.90054V33ZM6.92373 33H6.90054V35H6.92373V33ZM6.94716 33H6.92373V35H6.94716V33ZM6.97082 33H6.94716V35H6.97082V33ZM6.99472 33H6.97082V35H6.99472V33ZM7.01886 33H6.99472V35H7.01886V33ZM7.04323 33H7.01886V35H7.04323V33ZM7.06784 33H7.04323V35H7.06784V33ZM7.09267 33H7.06784V35H7.09267V33ZM7.11774 33H7.09267V35H7.11774V33ZM7.14303 33H7.11774V35H7.14303V33ZM7.16855 33H7.14303V35H7.16855V33ZM7.1943 33H7.16855V35H7.1943V33ZM7.22027 33H7.1943V35H7.22027V33ZM7.24646 33H7.22027V35H7.24646V33ZM7.27288 33H7.24646V35H7.27288V33ZM7.29952 33H7.27288V35H7.29952V33ZM7.32638 33H7.29952V35H7.32638V33ZM7.35346 33H7.32638V35H7.35346V33ZM7.38076 33H7.35346V35H7.38076V33ZM7.40827 33H7.38076V35H7.40827V33ZM7.436 33H7.40827V35H7.436V33ZM7.46394 33H7.436V35H7.46394V33ZM7.49209 33H7.46394V35H7.49209V33ZM7.52045 33H7.49209V35H7.52045V33ZM7.54903 33H7.52045V35H7.54903V33ZM7.57781 33H7.54903V35H7.57781V33ZM7.6068 33H7.57781V35H7.6068V33ZM7.636 33H7.6068V35H7.636V33ZM7.6654 33H7.636V35H7.6654V33ZM7.69501 33H7.6654V35H7.69501V33ZM7.72481 33H7.69501V35H7.72481V33ZM7.75482 33H7.72481V35H7.75482V33ZM7.78503 33H7.75482V35H7.78503V33ZM7.81544 33H7.78503V35H7.81544V33ZM7.84605 33H7.81544V35H7.84605V33ZM7.87685 33H7.84605V35H7.87685V33ZM7.90784 33H7.87685V35H7.90784V33ZM7.93903 33H7.90784V35H7.93903V33ZM7.97042 33H7.93903V35H7.97042V33ZM8.00199 33H7.97042V35H8.00199V33ZM8.03375 33H8.00199V35H8.03375V33ZM8.06571 33H8.03375V35H8.06571V33ZM8.09785 33H8.06571V35H8.09785V33ZM8.13017 33H8.09785V35H8.13017V33ZM8.16268 33H8.13017V35H8.16268V33ZM8.19538 33H8.16268V35H8.19538V33ZM8.22826 33H8.19538V35H8.22826V33ZM8.26131 33H8.22826V35H8.26131V33ZM8.29455 33H8.26131V35H8.29455V33ZM8.32797 33H8.29455V35H8.32797V33ZM8.36156 33H8.32797V35H8.36156V33ZM8.39533 33H8.36156V35H8.39533V33ZM8.42928 33H8.39533V35H8.42928V33ZM8.4634 33H8.42928V35H8.4634V33ZM8.49769 33H8.4634V35H8.49769V33ZM8.53215 33H8.49769V35H8.53215V33ZM8.56679 33H8.53215V35H8.56679V33ZM8.60159 33H8.56679V35H8.60159V33ZM8.63656 33H8.60159V35H8.63656V33ZM8.67169 33H8.63656V35H8.67169V33ZM8.70699 33H8.67169V35H8.70699V33ZM8.74245 33H8.70699V35H8.74245V33ZM8.77808 33H8.74245V35H8.77808V33ZM8.81387 33H8.77808V35H8.81387V33ZM8.84981 33H8.81387V35H8.84981V33ZM8.88592 33H8.84981V35H8.88592V33ZM8.92218 33H8.88592V35H8.92218V33ZM8.9586 33H8.92218V35H8.9586V33ZM8.99518 33H8.9586V35H8.99518V33ZM9.0319 33H8.99518V35H9.0319V33ZM9.06878 33H9.0319V35H9.06878V33ZM9.10581 33H9.06878V35H9.10581V33ZM9.14299 33H9.10581V35H9.14299V33ZM9.18032 33H9.14299V35H9.18032V33ZM9.2178 33H9.18032V35H9.2178V33ZM9.25542 33H9.2178V35H9.25542V33ZM9.29319 33H9.25542V35H9.29319V33ZM9.3311 33H9.29319V35H9.3311V33ZM9.36916 33H9.3311V35H9.36916V33ZM9.40735 33H9.36916V35H9.40735V33ZM9.44569 33H9.40735V35H9.44569V33ZM9.48416 33H9.44569V35H9.48416V33ZM9.52277 33H9.48416V35H9.52277V33ZM9.56152 33H9.52277V35H9.56152V33ZM9.6004 33H9.56152V35H9.6004V33ZM9.63942 33H9.6004V35H9.63942V33ZM9.67857 33H9.63942V35H9.67857V33ZM9.71785 33H9.67857V35H9.71785V33ZM9.75726 33H9.71785V35H9.75726V33ZM9.79679 33H9.75726V35H9.79679V33ZM9.83646 33H9.79679V35H9.83646V33ZM9.87625 33H9.83646V35H9.87625V33ZM9.91617 33H9.87625V35H9.91617V33ZM9.9562 33H9.91617V35H9.9562V33ZM9.99637 33H9.9562V35H9.99637V33ZM10.0366 33H9.99637V35H10.0366V33ZM10.0771 33H10.0366V35H10.0771V33ZM10.1176 33H10.0771V35H10.1176V33ZM10.1582 33H10.1176V35H10.1582V33ZM10.199 33H10.1582V35H10.199V33ZM10.2398 33H10.199V35H10.2398V33ZM10.2808 33H10.2398V35H10.2808V33ZM10.3219 33H10.2808V35H10.3219V33ZM10.3631 33H10.3219V35H10.3631V33ZM10.4044 33H10.3631V35H10.4044V33ZM10.4459 33H10.4044V35H10.4459V33ZM10.4874 33H10.4459V35H10.4874V33ZM10.529 33H10.4874V35H10.529V33ZM10.5708 33H10.529V35H10.5708V33ZM10.6126 33H10.5708V35H10.6126V33ZM10.6546 33H10.6126V35H10.6546V33ZM10.6966 33H10.6546V35H10.6966V33ZM10.7388 33H10.6966V35H10.7388V33ZM10.781 33H10.7388V35H10.781V33ZM10.8234 33H10.781V35H10.8234V33ZM10.8658 33H10.8234V35H10.8658V33ZM10.9084 33H10.8658V35H10.9084V33ZM10.951 33H10.9084V35H10.951V33ZM10.9937 33H10.951V35H10.9937V33ZM11.0365 33H10.9937V35H11.0365V33ZM11.0794 33H11.0365V35H11.0794V33ZM11.1224 33H11.0794V35H11.1224V33ZM11.1655 33H11.1224V35H11.1655V33ZM11.2087 33H11.1655V35H11.2087V33ZM11.2519 33H11.2087V35H11.2519V33ZM11.2952 33H11.2519V35H11.2952V33ZM11.3387 33H11.2952V35H11.3387V33ZM11.3822 33H11.3387V35H11.3822V33ZM11.4257 33H11.3822V35H11.4257V33ZM11.4694 33H11.4257V35H11.4694V33ZM11.5131 33H11.4694V35H11.5131V33ZM11.5569 33H11.5131V35H11.5569V33ZM11.6008 33H11.5569V35H11.6008V33ZM11.6448 33H11.6008V35H11.6448V33ZM11.6888 33H11.6448V35H11.6888V33ZM11.7329 33H11.6888V35H11.7329V33ZM11.7771 33H11.7329V35H11.7771V33ZM11.8213 33H11.7771V35H11.8213V33ZM11.8656 33H11.8213V35H11.8656V33ZM11.91 33H11.8656V35H11.91V33ZM11.9544 33H11.91V35H11.9544V33ZM11.9989 33H11.9544V35H11.9989V33ZM12.0435 33H11.9989V35H12.0435V33ZM12.0881 33H12.0435V35H12.0881V33ZM12.1328 33H12.0881V35H12.1328V33ZM12.1775 33H12.1328V35H12.1775V33ZM12.2223 33H12.1775V35H12.2223V33ZM12.2672 33H12.2223V35H12.2672V33ZM12.3121 33H12.2672V35H12.3121V33ZM12.3571 33H12.3121V35H12.3571V33ZM12.4021 33H12.3571V35H12.4021V33ZM12.4472 33H12.4021V35H12.4472V33ZM12.4923 33H12.4472V35H12.4923V33ZM12.5374 33H12.4923V35H12.5374V33ZM12.5826 33H12.5374V35H12.5826V33ZM12.6279 33H12.5826V35H12.6279V33ZM12.6732 33H12.6279V35H12.6732V33ZM12.7186 33H12.6732V35H12.7186V33ZM12.7639 33H12.7186V35H12.7639V33ZM12.8094 33H12.7639V35H12.8094V33ZM12.8548 33H12.8094V35H12.8548V33ZM12.9004 33H12.8548V35H12.9004V33ZM12.9459 33H12.9004V35H12.9459V33ZM12.9915 33H12.9459V35H12.9915V33ZM13.0371 33H12.9915V35H13.0371V33ZM13.0827 33H13.0371V35H13.0827V33ZM13.1284 33H13.0827V35H13.1284V33ZM13.1741 33H13.1284V35H13.1741V33ZM13.2199 33H13.1741V35H13.2199V33ZM13.2657 33H13.2199V35H13.2657V33ZM13.3115 33H13.2657V35H13.3115V33ZM13.3573 33H13.3115V35H13.3573V33ZM13.4031 33H13.3573V35H13.4031V33ZM13.449 33H13.4031V35H13.449V33ZM13.4949 33H13.449V35H13.4949V33ZM13.5408 33H13.4949V35H13.5408V33ZM13.5867 33H13.5408V35H13.5867V33ZM13.6327 33H13.5867V35H13.6327V33ZM13.6787 33H13.6327V35H13.6787V33ZM13.7247 33H13.6787V35H13.7247V33ZM13.7707 33H13.7247V35H13.7707V33ZM13.8167 33H13.7707V35H13.8167V33ZM13.8627 33H13.8167V35H13.8627V33ZM13.9087 33H13.8627V35H13.9087V33ZM13.9548 33H13.9087V35H13.9548V33ZM14.0008 33H13.9548V35H14.0008V33ZM14.0469 33H14.0008V35H14.0469V33ZM14.093 33H14.0469V35H14.093V33ZM14.139 33H14.093V35H14.139V33ZM14.1851 33H14.139V35H14.1851V33ZM14.2312 33H14.1851V35H14.2312V33ZM14.2773 33H14.2312V35H14.2773V33ZM14.3234 33H14.2773V35H14.3234V33ZM14.3694 33H14.3234V35H14.3694V33ZM14.4155 33H14.3694V35H14.4155V33ZM14.4616 33H14.4155V35H14.4616V33ZM14.5077 33H14.4616V35H14.5077V33ZM14.5537 33H14.5077V35H14.5537V33ZM14.5998 33H14.5537V35H14.5998V33ZM14.6458 33H14.5998V35H14.6458V33ZM14.6918 33H14.6458V35H14.6918V33ZM14.7379 33H14.6918V35H14.7379V33ZM14.7839 33H14.7379V35H14.7839V33ZM14.8299 33H14.7839V35H14.8299V33ZM14.8759 33H14.8299V35H14.8759V33ZM14.9218 33H14.8759V35H14.9218V33ZM14.9678 33H14.9218V35H14.9678V33ZM15.0137 33H14.9678V35H15.0137V33ZM15.0596 33H15.0137V35H15.0596V33ZM15.1055 33H15.0596V35H15.1055V33ZM15.1513 33H15.1055V35H15.1513V33ZM15.1972 33H15.1513V35H15.1972V33ZM15.243 33H15.1972V35H15.243V33ZM15.2888 33H15.243V35H15.2888V33ZM15.3345 33H15.2888V35H15.3345V33ZM15.3803 33H15.3345V35H15.3803V33ZM15.4259 33H15.3803V35H15.4259V33ZM15.4716 33H15.4259V35H15.4716V33ZM15.5172 33H15.4716V35H15.5172V33ZM15.5628 33H15.5172V35H15.5628V33ZM15.6084 33H15.5628V35H15.6084V33ZM15.6539 33H15.6084V35H15.6539V33ZM15.6994 33H15.6539V35H15.6994V33ZM15.7449 33H15.6994V35H15.7449V33ZM15.7903 33H15.7449V35H15.7903V33ZM15.8357 33H15.7903V35H15.8357V33ZM15.881 33H15.8357V35H15.881V33ZM15.9263 33H15.881V35H15.9263V33ZM15.9715 33H15.9263V35H15.9715V33ZM16.0167 33H15.9715V35H16.0167V33ZM16.0618 33H16.0167V35H16.0618V33ZM16.1069 33H16.0618V35H16.1069V33ZM16.152 33H16.1069V35H16.152V33ZM16.1969 33H16.152V35H16.1969V33ZM16.2419 33H16.1969V35H16.2419V33ZM16.2868 33H16.2419V35H16.2868V33ZM16.3316 33H16.2868V35H16.3316V33ZM16.3764 33H16.3316V35H16.3764V33ZM16.4211 33H16.3764V35H16.4211V33ZM16.4657 33H16.4211V35H16.4657V33ZM16.5103 33H16.4657V35H16.5103V33ZM16.5549 33H16.5103V35H16.5549V33ZM16.5993 33H16.5549V35H16.5993V33ZM16.6437 33H16.5993V35H16.6437V33ZM16.6881 33H16.6437V35H16.6881V33ZM16.7323 33H16.6881V35H16.7323V33ZM16.7765 33H16.7323V35H16.7765V33ZM16.8207 33H16.7765V35H16.8207V33ZM16.8647 33H16.8207V35H16.8647V33ZM16.9087 33H16.8647V35H16.9087V33ZM16.9527 33H16.9087V35H16.9527V33ZM16.9965 33H16.9527V35H16.9965V33ZM17.0403 33H16.9965V35H17.0403V33ZM17.084 33H17.0403V35H17.084V33ZM17.1276 33H17.084V35H17.1276V33ZM17.1711 33H17.1276V35H17.1711V33ZM17.2146 33H17.1711V35H17.2146V33ZM17.258 33H17.2146V35H17.258V33ZM17.3013 33H17.258V35H17.3013V33ZM17.3445 33H17.3013V35H17.3445V33ZM17.3876 33H17.3445V35H17.3876V33ZM17.4306 33H17.3876V35H17.4306V33ZM17.4736 33H17.4306V35H17.4736V33ZM17.5164 33H17.4736V35H17.5164V33ZM17.5592 33H17.5164V35H17.5592V33ZM17.6019 33H17.5592V35H17.6019V33ZM17.6445 33H17.6019V35H17.6445V33ZM17.6869 33H17.6445V35H17.6869V33ZM17.7293 33H17.6869V35H17.7293V33ZM17.7716 33H17.7293V35H17.7716V33ZM17.8138 33H17.7716V35H17.8138V33ZM17.8559 33H17.8138V35H17.8559V33ZM17.8979 33H17.8559V35H17.8979V33ZM17.9398 33H17.8979V35H17.9398V33ZM17.9816 33H17.9398V35H17.9816V33ZM18.0233 33H17.9816V35H18.0233V33ZM18.0649 33H18.0233V35H18.0649V33ZM18.1064 33H18.0649V35H18.1064V33ZM18.1478 33H18.1064V35H18.1478V33ZM18.189 33H18.1478V35H18.189V33ZM18.2302 33H18.189V35H18.2302V33ZM18.2712 33H18.2302V35H18.2712V33ZM18.3121 33H18.2712V35H18.3121V33ZM18.3529 33H18.3121V35H18.3529V33ZM18.3936 33H18.3529V35H18.3936V33ZM18.4342 33H18.3936V35H18.4342V33ZM18.4747 33H18.4342V35H18.4747V33ZM18.515 33H18.4747V35H18.515V33ZM18.5552 33H18.515V35H18.5552V33ZM18.5953 33H18.5552V35H18.5953V33ZM18.6353 33H18.5953V35H18.6353V33ZM18.6752 33H18.6353V35H18.6752V33ZM18.7149 33H18.6752V35H18.7149V33ZM18.7545 33H18.7149V35H18.7545V33ZM18.794 33H18.7545V35H18.794V33ZM18.8333 33H18.794V35H18.8333V33ZM18.8725 33H18.8333V35H18.8725V33ZM18.9116 33H18.8725V35H18.9116V33ZM18.9506 33H18.9116V35H18.9506V33ZM18.9894 33H18.9506V35H18.9894V33ZM19.0281 33H18.9894V35H19.0281V33ZM19.0666 33H19.0281V35H19.0666V33ZM19.105 33H19.0666V35H19.105V33ZM19.1433 33H19.105V35H19.1433V33ZM19.1814 33H19.1433V35H19.1814V33ZM19.2194 33H19.1814V35H19.2194V33ZM19.2572 33H19.2194V35H19.2572V33ZM19.2949 33H19.2572V35H19.2949V33ZM19.3325 33H19.2949V35H19.3325V33ZM19.3699 33H19.3325V35H19.3699V33ZM19.4071 33H19.3699V35H19.4071V33ZM19.4442 33H19.4071V35H19.4442V33ZM19.4812 33H19.4442V35H19.4812V33ZM19.518 33H19.4812V35H19.518V33ZM19.5546 33H19.518V35H19.5546V33ZM19.5911 33H19.5546V35H19.5911V33ZM19.6275 33H19.5911V35H19.6275V33ZM19.6637 33H19.6275V35H19.6637V33ZM19.6997 33H19.6637V35H19.6997V33ZM19.7356 33H19.6997V35H19.7356V33ZM19.7713 33H19.7356V35H19.7713V33ZM19.8068 33H19.7713V35H19.8068V33ZM19.8422 33H19.8068V35H19.8422V33ZM19.8774 33H19.8422V35H19.8774V33ZM19.9125 33H19.8774V35H19.9125V33ZM19.9473 33H19.9125V35H19.9473V33ZM19.9821 33H19.9473V35H19.9821V33ZM20.0166 33H19.9821V35H20.0166V33ZM20.051 33H20.0166V35H20.051V33ZM20.0852 33H20.051V35H20.0852V33ZM20.1192 33H20.0852V35H20.1192V33ZM20.1531 33H20.1192V35H20.1531V33ZM20.1868 33H20.1531V35H20.1868V33ZM20.2203 33H20.1868V35H20.2203V33ZM20.2536 33H20.2203V35H20.2536V33ZM20.2867 33H20.2536V35H20.2867V33ZM20.3197 33H20.2867V35H20.3197V33ZM20.3525 33H20.3197V35H20.3525V33ZM20.3851 33H20.3525V35H20.3851V33ZM20.4175 33H20.3851V35H20.4175V33ZM20.4497 33H20.4175V35H20.4497V33ZM20.4818 33H20.4497V35H20.4818V33ZM20.5136 33H20.4818V35H20.5136V33ZM20.5453 33H20.5136V35H20.5453V33ZM20.5768 33H20.5453V35H20.5768V33ZM20.6081 33H20.5768V35H20.6081V33ZM20.6392 33H20.6081V35H20.6392V33ZM20.6701 33H20.6392V35H20.6701V33ZM20.7008 33H20.6701V35H20.7008V33ZM20.7313 33H20.7008V35H20.7313V33ZM20.7616 33H20.7313V35H20.7616V33ZM20.7917 33H20.7616V35H20.7917V33ZM20.8216 33H20.7917V35H20.8216V33ZM20.8513 33H20.8216V35H20.8513V33ZM20.8808 33H20.8513V35H20.8808V33ZM20.9101 33H20.8808V35H20.9101V33ZM20.9392 33H20.9101V35H20.9392V33ZM20.9681 33H20.9392V35H20.9681V33ZM20.9968 33H20.9681V35H20.9968V33ZM21.0252 33H20.9968V35H21.0252V33ZM21.0535 33H21.0252V35H21.0535V33ZM21.0816 33H21.0535V35H21.0816V33ZM21.1094 33H21.0816V35H21.1094V33ZM21.137 33H21.1094V35H21.137V33ZM21.1644 33H21.137V35H21.1644V33ZM21.1916 33H21.1644V35H21.1916V33ZM21.2186 33H21.1916V35H21.2186V33ZM21.2453 33H21.2186V35H21.2453V33ZM21.2718 33H21.2453V35H21.2718V33ZM21.2981 33H21.2718V35H21.2981V33ZM21.3242 33H21.2981V35H21.3242V33ZM21.3501 33H21.3242V35H21.3501V33ZM21.3757 33H21.3501V35H21.3757V33ZM21.4011 33H21.3757V35H21.4011V33ZM21.4263 33H21.4011V35H21.4263V33ZM21.4513 33H21.4263V35H21.4513V33ZM21.476 33H21.4513V35H21.476V33ZM21.5005 33H21.476V35H21.5005V33ZM21.5247 33H21.5005V35H21.5247V33ZM21.5487 33H21.5247V35H21.5487V33ZM21.5725 33H21.5487V35H21.5725V33ZM21.5961 33H21.5725V35H21.5961V33ZM21.6194 33H21.5961V35H21.6194V33ZM21.6424 33H21.6194V35H21.6424V33ZM21.6653 33H21.6424V35H21.6653V33ZM21.6879 33H21.6653V35H21.6879V33ZM21.7102 33H21.6879V35H21.7102V33ZM21.7323 33H21.7102V35H21.7323V33ZM21.7542 33H21.7323V35H21.7542V33ZM21.7758 33H21.7542V35H21.7758V33ZM21.7971 33H21.7758V35H21.7971V33ZM21.8182 33H21.7971V35H21.8182V33ZM21.8391 33H21.8182V35H21.8391V33ZM21.8597 33H21.8391V35H21.8597V33ZM21.88 33H21.8597V35H21.88V33ZM21.9001 33H21.88V35H21.9001V33ZM21.92 33H21.9001V35H21.92V33ZM21.9396 33H21.92V35H21.9396V33ZM21.9589 33H21.9396V35H21.9589V33ZM21.978 33H21.9589V35H21.978V33ZM21.9968 33H21.978V35H21.9968V33ZM22.0153 33H21.9968V35H22.0153V33ZM22.0336 33H22.0153V35H22.0336V33ZM22.0516 33H22.0336V35H22.0516V33ZM22.0694 33H22.0516V35H22.0694V33ZM22.0869 33H22.0694V35H22.0869V33ZM22.1041 33H22.0869V35H22.1041V33ZM22.121 33H22.1041V35H22.121V33ZM22.1377 33H22.121V35H22.1377V33ZM22.1541 33H22.1377V35H22.1541V33ZM22.1703 33H22.1541V35H22.1703V33ZM22.1861 33H22.1703V35H22.1861V33ZM22.2017 33H22.1861V35H22.2017V33ZM22.217 33H22.2017V35H22.217V33ZM22.232 33H22.217V35H22.232V33ZM22.2468 33H22.232V35H22.2468V33ZM22.2612 33H22.2468V35H22.2612V33ZM22.2754 33H22.2612V35H22.2754V33ZM22.2893 33H22.2754V35H22.2893V33ZM22.3029 33H22.2893V35H22.3029V33ZM22.3163 33H22.3029V35H22.3163V33ZM22.3293 33H22.3163V35H22.3293V33ZM22.3421 33H22.3293V35H22.3421V33ZM22.3545 33H22.3421V35H22.3545V33ZM22.3667 33H22.3545V35H22.3667V33ZM22.3786 33H22.3667V35H22.3786V33ZM22.3902 33H22.3786V35H22.3902V33ZM22.4015 33H22.3902V35H22.4015V33ZM22.4125 33H22.4015V35H22.4125V33ZM22.4232 33H22.4125V35H22.4232V33ZM22.4336 33H22.4232V35H22.4336V33ZM22.4437 33H22.4336V35H22.4437V33ZM22.4535 33H22.4437V35H22.4535V33ZM22.463 33H22.4535V35H22.463V33ZM22.4722 33H22.463V35H22.4722V33ZM22.4811 33H22.4722V35H22.4811V33ZM22.4897 33H22.4811V35H22.4897V33ZM22.498 33H22.4897V35H22.498V33ZM22.506 33H22.498V35H22.506V33ZM22.5136 33H22.506V35H22.5136V33ZM22.521 33H22.5136V35H22.521V33ZM22.528 33H22.521V35H22.528V33ZM22.5348 33H22.528V35H22.5348V33ZM22.5412 33H22.5348V35H22.5412V33ZM22.5473 33H22.5412V35H22.5473V33ZM22.5531 33H22.5473V35H22.5531V33ZM22.5585 33H22.5531V35H22.5585V33ZM22.5637 33H22.5585V35H22.5637V33ZM22.5685 33H22.5637V35H22.5685V33ZM22.573 33H22.5685V35H22.573V33ZM22.5772 33H22.573V35H22.5772V33ZM22.581 33H22.5772V35H22.581V33ZM22.5846 33H22.581V35H22.5846V33ZM24.5846 35C24.5846 33.8954 23.6891 33 22.5846 33V35H24.5846ZM22.5846 37C23.6891 37 24.5846 36.1046 24.5846 35H22.5846V37ZM22.581 37H22.5846V35H22.581V37ZM22.5772 37H22.581V35H22.5772V37ZM22.573 37H22.5772V35H22.573V37ZM22.5685 37H22.573V35H22.5685V37ZM22.5637 37H22.5685V35H22.5637V37ZM22.5585 37H22.5637V35H22.5585V37ZM22.5531 37H22.5585V35H22.5531V37ZM22.5473 37H22.5531V35H22.5473V37ZM22.5412 37H22.5473V35H22.5412V37ZM22.5348 37H22.5412V35H22.5348V37ZM22.528 37H22.5348V35H22.528V37ZM22.521 37H22.528V35H22.521V37ZM22.5136 37H22.521V35H22.5136V37ZM22.506 37H22.5136V35H22.506V37ZM22.498 37H22.506V35H22.498V37ZM22.4897 37H22.498V35H22.4897V37ZM22.4811 37H22.4897V35H22.4811V37ZM22.4722 37H22.4811V35H22.4722V37ZM22.463 37H22.4722V35H22.463V37ZM22.4535 37H22.463V35H22.4535V37ZM22.4437 37H22.4535V35H22.4437V37ZM22.4336 37H22.4437V35H22.4336V37ZM22.4232 37H22.4336V35H22.4232V37ZM22.4125 37H22.4232V35H22.4125V37ZM22.4015 37H22.4125V35H22.4015V37ZM22.3902 37H22.4015V35H22.3902V37ZM22.3786 37H22.3902V35H22.3786V37ZM22.3667 37H22.3786V35H22.3667V37ZM22.3545 37H22.3667V35H22.3545V37ZM22.3421 37H22.3545V35H22.3421V37ZM22.3293 37H22.3421V35H22.3293V37ZM22.3163 37H22.3293V35H22.3163V37ZM22.3029 37H22.3163V35H22.3029V37ZM22.2893 37H22.3029V35H22.2893V37ZM22.2754 37H22.2893V35H22.2754V37ZM22.2612 37H22.2754V35H22.2612V37ZM22.2468 37H22.2612V35H22.2468V37ZM22.232 37H22.2468V35H22.232V37ZM22.217 37H22.232V35H22.217V37ZM22.2017 37H22.217V35H22.2017V37ZM22.1861 37H22.2017V35H22.1861V37ZM22.1703 37H22.1861V35H22.1703V37ZM22.1541 37H22.1703V35H22.1541V37ZM22.1377 37H22.1541V35H22.1377V37ZM22.121 37H22.1377V35H22.121V37ZM22.1041 37H22.121V35H22.1041V37ZM22.0869 37H22.1041V35H22.0869V37ZM22.0694 37H22.0869V35H22.0694V37ZM22.0516 37H22.0694V35H22.0516V37ZM22.0336 37H22.0516V35H22.0336V37ZM22.0153 37H22.0336V35H22.0153V37ZM21.9968 37H22.0153V35H21.9968V37ZM21.978 37H21.9968V35H21.978V37ZM21.9589 37H21.978V35H21.9589V37ZM21.9396 37H21.9589V35H21.9396V37ZM21.92 37H21.9396V35H21.92V37ZM21.9001 37H21.92V35H21.9001V37ZM21.88 37H21.9001V35H21.88V37ZM21.8597 37H21.88V35H21.8597V37ZM21.8391 37H21.8597V35H21.8391V37ZM21.8182 37H21.8391V35H21.8182V37ZM21.7971 37H21.8182V35H21.7971V37ZM21.7758 37H21.7971V35H21.7758V37ZM21.7542 37H21.7758V35H21.7542V37ZM21.7323 37H21.7542V35H21.7323V37ZM21.7102 37H21.7323V35H21.7102V37ZM21.6879 37H21.7102V35H21.6879V37ZM21.6653 37H21.6879V35H21.6653V37ZM21.6424 37H21.6653V35H21.6424V37ZM21.6194 37H21.6424V35H21.6194V37ZM21.5961 37H21.6194V35H21.5961V37ZM21.5725 37H21.5961V35H21.5725V37ZM21.5487 37H21.5725V35H21.5487V37ZM21.5247 37H21.5487V35H21.5247V37ZM21.5005 37H21.5247V35H21.5005V37ZM21.476 37H21.5005V35H21.476V37ZM21.4513 37H21.476V35H21.4513V37ZM21.4263 37H21.4513V35H21.4263V37ZM21.4011 37H21.4263V35H21.4011V37ZM21.3757 37H21.4011V35H21.3757V37ZM21.3501 37H21.3757V35H21.3501V37ZM21.3242 37H21.3501V35H21.3242V37ZM21.2981 37H21.3242V35H21.2981V37ZM21.2718 37H21.2981V35H21.2718V37ZM21.2453 37H21.2718V35H21.2453V37ZM21.2186 37H21.2453V35H21.2186V37ZM21.1916 37H21.2186V35H21.1916V37ZM21.1644 37H21.1916V35H21.1644V37ZM21.137 37H21.1644V35H21.137V37ZM21.1094 37H21.137V35H21.1094V37ZM21.0816 37H21.1094V35H21.0816V37ZM21.0535 37H21.0816V35H21.0535V37ZM21.0252 37H21.0535V35H21.0252V37ZM20.9968 37H21.0252V35H20.9968V37ZM20.9681 37H20.9968V35H20.9681V37ZM20.9392 37H20.9681V35H20.9392V37ZM20.9101 37H20.9392V35H20.9101V37ZM20.8808 37H20.9101V35H20.8808V37ZM20.8513 37H20.8808V35H20.8513V37ZM20.8216 37H20.8513V35H20.8216V37ZM20.7917 37H20.8216V35H20.7917V37ZM20.7616 37H20.7917V35H20.7616V37ZM20.7313 37H20.7616V35H20.7313V37ZM20.7008 37H20.7313V35H20.7008V37ZM20.6701 37H20.7008V35H20.6701V37ZM20.6392 37H20.6701V35H20.6392V37ZM20.6081 37H20.6392V35H20.6081V37ZM20.5768 37H20.6081V35H20.5768V37ZM20.5453 37H20.5768V35H20.5453V37ZM20.5136 37H20.5453V35H20.5136V37ZM20.4818 37H20.5136V35H20.4818V37ZM20.4497 37H20.4818V35H20.4497V37ZM20.4175 37H20.4497V35H20.4175V37ZM20.3851 37H20.4175V35H20.3851V37ZM20.3525 37H20.3851V35H20.3525V37ZM20.3197 37H20.3525V35H20.3197V37ZM20.2867 37H20.3197V35H20.2867V37ZM20.2536 37H20.2867V35H20.2536V37ZM20.2203 37H20.2536V35H20.2203V37ZM20.1868 37H20.2203V35H20.1868V37ZM20.1531 37H20.1868V35H20.1531V37ZM20.1192 37H20.1531V35H20.1192V37ZM20.0852 37H20.1192V35H20.0852V37ZM20.051 37H20.0852V35H20.051V37ZM20.0166 37H20.051V35H20.0166V37ZM19.9821 37H20.0166V35H19.9821V37ZM19.9473 37H19.9821V35H19.9473V37ZM19.9125 37H19.9473V35H19.9125V37ZM19.8774 37H19.9125V35H19.8774V37ZM19.8422 37H19.8774V35H19.8422V37ZM19.8068 37H19.8422V35H19.8068V37ZM19.7713 37H19.8068V35H19.7713V37ZM19.7356 37H19.7713V35H19.7356V37ZM19.6997 37H19.7356V35H19.6997V37ZM19.6637 37H19.6997V35H19.6637V37ZM19.6275 37H19.6637V35H19.6275V37ZM19.5911 37H19.6275V35H19.5911V37ZM19.5546 37H19.5911V35H19.5546V37ZM19.518 37H19.5546V35H19.518V37ZM19.4812 37H19.518V35H19.4812V37ZM19.4442 37H19.4812V35H19.4442V37ZM19.4071 37H19.4442V35H19.4071V37ZM19.3699 37H19.4071V35H19.3699V37ZM19.3325 37H19.3699V35H19.3325V37ZM19.2949 37H19.3325V35H19.2949V37ZM19.2572 37H19.2949V35H19.2572V37ZM19.2194 37H19.2572V35H19.2194V37ZM19.1814 37H19.2194V35H19.1814V37ZM19.1433 37H19.1814V35H19.1433V37ZM19.105 37H19.1433V35H19.105V37ZM19.0666 37H19.105V35H19.0666V37ZM19.0281 37H19.0666V35H19.0281V37ZM18.9894 37H19.0281V35H18.9894V37ZM18.9506 37H18.9894V35H18.9506V37ZM18.9116 37H18.9506V35H18.9116V37ZM18.8725 37H18.9116V35H18.8725V37ZM18.8333 37H18.8725V35H18.8333V37ZM18.794 37H18.8333V35H18.794V37ZM18.7545 37H18.794V35H18.7545V37ZM18.7149 37H18.7545V35H18.7149V37ZM18.6752 37H18.7149V35H18.6752V37ZM18.6353 37H18.6752V35H18.6353V37ZM18.5953 37H18.6353V35H18.5953V37ZM18.5552 37H18.5953V35H18.5552V37ZM18.515 37H18.5552V35H18.515V37ZM18.4747 37H18.515V35H18.4747V37ZM18.4342 37H18.4747V35H18.4342V37ZM18.3936 37H18.4342V35H18.3936V37ZM18.3529 37H18.3936V35H18.3529V37ZM18.3121 37H18.3529V35H18.3121V37ZM18.2712 37H18.3121V35H18.2712V37ZM18.2302 37H18.2712V35H18.2302V37ZM18.189 37H18.2302V35H18.189V37ZM18.1478 37H18.189V35H18.1478V37ZM18.1064 37H18.1478V35H18.1064V37ZM18.0649 37H18.1064V35H18.0649V37ZM18.0233 37H18.0649V35H18.0233V37ZM17.9816 37H18.0233V35H17.9816V37ZM17.9398 37H17.9816V35H17.9398V37ZM17.8979 37H17.9398V35H17.8979V37ZM17.8559 37H17.8979V35H17.8559V37ZM17.8138 37H17.8559V35H17.8138V37ZM17.7716 37H17.8138V35H17.7716V37ZM17.7293 37H17.7716V35H17.7293V37ZM17.6869 37H17.7293V35H17.6869V37ZM17.6445 37H17.6869V35H17.6445V37ZM17.6019 37H17.6445V35H17.6019V37ZM17.5592 37H17.6019V35H17.5592V37ZM17.5164 37H17.5592V35H17.5164V37ZM17.4736 37H17.5164V35H17.4736V37ZM17.4306 37H17.4736V35H17.4306V37ZM17.3876 37H17.4306V35H17.3876V37ZM17.3445 37H17.3876V35H17.3445V37ZM17.3013 37H17.3445V35H17.3013V37ZM17.258 37H17.3013V35H17.258V37ZM17.2146 37H17.258V35H17.2146V37ZM17.1711 37H17.2146V35H17.1711V37ZM17.1276 37H17.1711V35H17.1276V37ZM17.084 37H17.1276V35H17.084V37ZM17.0403 37H17.084V35H17.0403V37ZM16.9965 37H17.0403V35H16.9965V37ZM16.9527 37H16.9965V35H16.9527V37ZM16.9087 37H16.9527V35H16.9087V37ZM16.8647 37H16.9087V35H16.8647V37ZM16.8207 37H16.8647V35H16.8207V37ZM16.7765 37H16.8207V35H16.7765V37ZM16.7323 37H16.7765V35H16.7323V37ZM16.6881 37H16.7323V35H16.6881V37ZM16.6437 37H16.6881V35H16.6437V37ZM16.5993 37H16.6437V35H16.5993V37ZM16.5549 37H16.5993V35H16.5549V37ZM16.5103 37H16.5549V35H16.5103V37ZM16.4657 37H16.5103V35H16.4657V37ZM16.4211 37H16.4657V35H16.4211V37ZM16.3764 37H16.4211V35H16.3764V37ZM16.3316 37H16.3764V35H16.3316V37ZM16.2868 37H16.3316V35H16.2868V37ZM16.2419 37H16.2868V35H16.2419V37ZM16.1969 37H16.2419V35H16.1969V37ZM16.152 37H16.1969V35H16.152V37ZM16.1069 37H16.152V35H16.1069V37ZM16.0618 37H16.1069V35H16.0618V37ZM16.0167 37H16.0618V35H16.0167V37ZM15.9715 37H16.0167V35H15.9715V37ZM15.9263 37H15.9715V35H15.9263V37ZM15.881 37H15.9263V35H15.881V37ZM15.8357 37H15.881V35H15.8357V37ZM15.7903 37H15.8357V35H15.7903V37ZM15.7449 37H15.7903V35H15.7449V37ZM15.6994 37H15.7449V35H15.6994V37ZM15.6539 37H15.6994V35H15.6539V37ZM15.6084 37H15.6539V35H15.6084V37ZM15.5628 37H15.6084V35H15.5628V37ZM15.5172 37H15.5628V35H15.5172V37ZM15.4716 37H15.5172V35H15.4716V37ZM15.4259 37H15.4716V35H15.4259V37ZM15.3803 37H15.4259V35H15.3803V37ZM15.3345 37H15.3803V35H15.3345V37ZM15.2888 37H15.3345V35H15.2888V37ZM15.243 37H15.2888V35H15.243V37ZM15.1972 37H15.243V35H15.1972V37ZM15.1513 37H15.1972V35H15.1513V37ZM15.1055 37H15.1513V35H15.1055V37ZM15.0596 37H15.1055V35H15.0596V37ZM15.0137 37H15.0596V35H15.0137V37ZM14.9678 37H15.0137V35H14.9678V37ZM14.9218 37H14.9678V35H14.9218V37ZM14.8759 37H14.9218V35H14.8759V37ZM14.8299 37H14.8759V35H14.8299V37ZM14.7839 37H14.8299V35H14.7839V37ZM14.7379 37H14.7839V35H14.7379V37ZM14.6918 37H14.7379V35H14.6918V37ZM14.6458 37H14.6918V35H14.6458V37ZM14.5998 37H14.6458V35H14.5998V37ZM14.5537 37H14.5998V35H14.5537V37ZM14.5077 37H14.5537V35H14.5077V37ZM14.4616 37H14.5077V35H14.4616V37ZM14.4155 37H14.4616V35H14.4155V37ZM14.3694 37H14.4155V35H14.3694V37ZM14.3234 37H14.3694V35H14.3234V37ZM14.2773 37H14.3234V35H14.2773V37ZM14.2312 37H14.2773V35H14.2312V37ZM14.1851 37H14.2312V35H14.1851V37ZM14.139 37H14.1851V35H14.139V37ZM14.093 37H14.139V35H14.093V37ZM14.0469 37H14.093V35H14.0469V37ZM14.0008 37H14.0469V35H14.0008V37ZM13.9548 37H14.0008V35H13.9548V37ZM13.9087 37H13.9548V35H13.9087V37ZM13.8627 37H13.9087V35H13.8627V37ZM13.8167 37H13.8627V35H13.8167V37ZM13.7707 37H13.8167V35H13.7707V37ZM13.7247 37H13.7707V35H13.7247V37ZM13.6787 37H13.7247V35H13.6787V37ZM13.6327 37H13.6787V35H13.6327V37ZM13.5867 37H13.6327V35H13.5867V37ZM13.5408 37H13.5867V35H13.5408V37ZM13.4949 37H13.5408V35H13.4949V37ZM13.449 37H13.4949V35H13.449V37ZM13.4031 37H13.449V35H13.4031V37ZM13.3573 37H13.4031V35H13.3573V37ZM13.3115 37H13.3573V35H13.3115V37ZM13.2657 37H13.3115V35H13.2657V37ZM13.2199 37H13.2657V35H13.2199V37ZM13.1741 37H13.2199V35H13.1741V37ZM13.1284 37H13.1741V35H13.1284V37ZM13.0827 37H13.1284V35H13.0827V37ZM13.0371 37H13.0827V35H13.0371V37ZM12.9915 37H13.0371V35H12.9915V37ZM12.9459 37H12.9915V35H12.9459V37ZM12.9004 37H12.9459V35H12.9004V37ZM12.8548 37H12.9004V35H12.8548V37ZM12.8094 37H12.8548V35H12.8094V37ZM12.7639 37H12.8094V35H12.7639V37ZM12.7186 37H12.7639V35H12.7186V37ZM12.6732 37H12.7186V35H12.6732V37ZM12.6279 37H12.6732V35H12.6279V37ZM12.5826 37H12.6279V35H12.5826V37ZM12.5374 37H12.5826V35H12.5374V37ZM12.4923 37H12.5374V35H12.4923V37ZM12.4472 37H12.4923V35H12.4472V37ZM12.4021 37H12.4472V35H12.4021V37ZM12.3571 37H12.4021V35H12.3571V37ZM12.3121 37H12.3571V35H12.3121V37ZM12.2672 37H12.3121V35H12.2672V37ZM12.2223 37H12.2672V35H12.2223V37ZM12.1775 37H12.2223V35H12.1775V37ZM12.1328 37H12.1775V35H12.1328V37ZM12.0881 37H12.1328V35H12.0881V37ZM12.0435 37H12.0881V35H12.0435V37ZM11.9989 37H12.0435V35H11.9989V37ZM11.9544 37H11.9989V35H11.9544V37ZM11.91 37H11.9544V35H11.91V37ZM11.8656 37H11.91V35H11.8656V37ZM11.8213 37H11.8656V35H11.8213V37ZM11.7771 37H11.8213V35H11.7771V37ZM11.7329 37H11.7771V35H11.7329V37ZM11.6888 37H11.7329V35H11.6888V37ZM11.6448 37H11.6888V35H11.6448V37ZM11.6008 37H11.6448V35H11.6008V37ZM11.5569 37H11.6008V35H11.5569V37ZM11.5131 37H11.5569V35H11.5131V37ZM11.4694 37H11.5131V35H11.4694V37ZM11.4257 37H11.4694V35H11.4257V37ZM11.3822 37H11.4257V35H11.3822V37ZM11.3387 37H11.3822V35H11.3387V37ZM11.2952 37H11.3387V35H11.2952V37ZM11.2519 37H11.2952V35H11.2519V37ZM11.2087 37H11.2519V35H11.2087V37ZM11.1655 37H11.2087V35H11.1655V37ZM11.1224 37H11.1655V35H11.1224V37ZM11.0794 37H11.1224V35H11.0794V37ZM11.0365 37H11.0794V35H11.0365V37ZM10.9937 37H11.0365V35H10.9937V37ZM10.951 37H10.9937V35H10.951V37ZM10.9084 37H10.951V35H10.9084V37ZM10.8658 37H10.9084V35H10.8658V37ZM10.8234 37H10.8658V35H10.8234V37ZM10.781 37H10.8234V35H10.781V37ZM10.7388 37H10.781V35H10.7388V37ZM10.6966 37H10.7388V35H10.6966V37ZM10.6546 37H10.6966V35H10.6546V37ZM10.6126 37H10.6546V35H10.6126V37ZM10.5708 37H10.6126V35H10.5708V37ZM10.529 37H10.5708V35H10.529V37ZM10.4874 37H10.529V35H10.4874V37ZM10.4459 37H10.4874V35H10.4459V37ZM10.4044 37H10.4459V35H10.4044V37ZM10.3631 37H10.4044V35H10.3631V37ZM10.3219 37H10.3631V35H10.3219V37ZM10.2808 37H10.3219V35H10.2808V37ZM10.2398 37H10.2808V35H10.2398V37ZM10.199 37H10.2398V35H10.199V37ZM10.1582 37H10.199V35H10.1582V37ZM10.1176 37H10.1582V35H10.1176V37ZM10.0771 37H10.1176V35H10.0771V37ZM10.0366 37H10.0771V35H10.0366V37ZM9.99637 37H10.0366V35H9.99637V37ZM9.9562 37H9.99637V35H9.9562V37ZM9.91617 37H9.9562V35H9.91617V37ZM9.87625 37H9.91617V35H9.87625V37ZM9.83646 37H9.87625V35H9.83646V37ZM9.79679 37H9.83646V35H9.79679V37ZM9.75726 37H9.79679V35H9.75726V37ZM9.71785 37H9.75726V35H9.71785V37ZM9.67857 37H9.71785V35H9.67857V37ZM9.63942 37H9.67857V35H9.63942V37ZM9.6004 37H9.63942V35H9.6004V37ZM9.56152 37H9.6004V35H9.56152V37ZM9.52277 37H9.56152V35H9.52277V37ZM9.48416 37H9.52277V35H9.48416V37ZM9.44569 37H9.48416V35H9.44569V37ZM9.40735 37H9.44569V35H9.40735V37ZM9.36916 37H9.40735V35H9.36916V37ZM9.3311 37H9.36916V35H9.3311V37ZM9.29319 37H9.3311V35H9.29319V37ZM9.25542 37H9.29319V35H9.25542V37ZM9.2178 37H9.25542V35H9.2178V37ZM9.18032 37H9.2178V35H9.18032V37ZM9.14299 37H9.18032V35H9.14299V37ZM9.10581 37H9.14299V35H9.10581V37ZM9.06878 37H9.10581V35H9.06878V37ZM9.0319 37H9.06878V35H9.0319V37ZM8.99518 37H9.0319V35H8.99518V37ZM8.9586 37H8.99518V35H8.9586V37ZM8.92218 37H8.9586V35H8.92218V37ZM8.88592 37H8.92218V35H8.88592V37ZM8.84981 37H8.88592V35H8.84981V37ZM8.81387 37H8.84981V35H8.81387V37ZM8.77808 37H8.81387V35H8.77808V37ZM8.74245 37H8.77808V35H8.74245V37ZM8.70699 37H8.74245V35H8.70699V37ZM8.67169 37H8.70699V35H8.67169V37ZM8.63656 37H8.67169V35H8.63656V37ZM8.60159 37H8.63656V35H8.60159V37ZM8.56679 37H8.60159V35H8.56679V37ZM8.53215 37H8.56679V35H8.53215V37ZM8.49769 37H8.53215V35H8.49769V37ZM8.4634 37H8.49769V35H8.4634V37ZM8.42928 37H8.4634V35H8.42928V37ZM8.39533 37H8.42928V35H8.39533V37ZM8.36156 37H8.39533V35H8.36156V37ZM8.32797 37H8.36156V35H8.32797V37ZM8.29455 37H8.32797V35H8.29455V37ZM8.26131 37H8.29455V35H8.26131V37ZM8.22826 37H8.26131V35H8.22826V37ZM8.19538 37H8.22826V35H8.19538V37ZM8.16268 37H8.19538V35H8.16268V37ZM8.13017 37H8.16268V35H8.13017V37ZM8.09785 37H8.13017V35H8.09785V37ZM8.06571 37H8.09785V35H8.06571V37ZM8.03375 37H8.06571V35H8.03375V37ZM8.00199 37H8.03375V35H8.00199V37ZM7.97042 37H8.00199V35H7.97042V37ZM7.93903 37H7.97042V35H7.93903V37ZM7.90784 37H7.93903V35H7.90784V37ZM7.87685 37H7.90784V35H7.87685V37ZM7.84605 37H7.87685V35H7.84605V37ZM7.81544 37H7.84605V35H7.81544V37ZM7.78503 37H7.81544V35H7.78503V37ZM7.75482 37H7.78503V35H7.75482V37ZM7.72481 37H7.75482V35H7.72481V37ZM7.69501 37H7.72481V35H7.69501V37ZM7.6654 37H7.69501V35H7.6654V37ZM7.636 37H7.6654V35H7.636V37ZM7.6068 37H7.636V35H7.6068V37ZM7.57781 37H7.6068V35H7.57781V37ZM7.54903 37H7.57781V35H7.54903V37ZM7.52045 37H7.54903V35H7.52045V37ZM7.49209 37H7.52045V35H7.49209V37ZM7.46394 37H7.49209V35H7.46394V37ZM7.436 37H7.46394V35H7.436V37ZM7.40827 37H7.436V35H7.40827V37ZM7.38076 37H7.40827V35H7.38076V37ZM7.35346 37H7.38076V35H7.35346V37ZM7.32638 37H7.35346V35H7.32638V37ZM7.29952 37H7.32638V35H7.29952V37ZM7.27288 37H7.29952V35H7.27288V37ZM7.24646 37H7.27288V35H7.24646V37ZM7.22027 37H7.24646V35H7.22027V37ZM7.1943 37H7.22027V35H7.1943V37ZM7.16855 37H7.1943V35H7.16855V37ZM7.14303 37H7.16855V35H7.14303V37ZM7.11774 37H7.14303V35H7.11774V37ZM7.09267 37H7.11774V35H7.09267V37ZM7.06784 37H7.09267V35H7.06784V37ZM7.04323 37H7.06784V35H7.04323V37ZM7.01886 37H7.04323V35H7.01886V37ZM6.99472 37H7.01886V35H6.99472V37ZM6.97082 37H6.99472V35H6.97082V37ZM6.94716 37H6.97082V35H6.94716V37ZM6.92373 37H6.94716V35H6.92373V37ZM6.90054 37H6.92373V35H6.90054V37ZM6.87759 37H6.90054V35H6.87759V37ZM6.85488 37H6.87759V35H6.85488V37ZM6.83241 37H6.85488V35H6.83241V37ZM6.81019 37H6.83241V35H6.81019V37ZM6.78821 37H6.81019V35H6.78821V37ZM6.76648 37H6.78821V35H6.76648V37ZM6.745 37H6.76648V35H6.745V37ZM6.72377 37H6.745V35H6.72377V37ZM6.70278 37H6.72377V35H6.70278V37ZM6.68205 37H6.70278V35H6.68205V37ZM6.66157 37H6.68205V35H6.66157V37ZM6.64134 37H6.66157V35H6.64134V37ZM6.62137 37H6.64134V35H6.62137V37ZM6.60165 37H6.62137V35H6.60165V37ZM6.58219 37H6.60165V35H6.58219V37ZM6.563 37H6.58219V35H6.563V37ZM6.54406 37H6.563V35H6.54406V37ZM6.52538 37H6.54406V35H6.52538V37ZM6.50696 37H6.52538V35H6.50696V37ZM6.48881 37H6.50696V35H6.48881V37ZM6.47092 37H6.48881V35H6.47092V37ZM6.4533 37H6.47092V35H6.4533V37ZM6.43595 37H6.4533V35H6.43595V37ZM6.41887 37H6.43595V35H6.41887V37ZM6.40205 37H6.41887V35H6.40205V37ZM6.38551 37H6.40205V35H6.38551V37ZM6.36924 37H6.38551V35H6.36924V37ZM6.35325 37H6.36924V35H6.35325V37ZM6.33752 37H6.35325V35H6.33752V37ZM6.32208 37H6.33752V35H6.32208V37ZM6.30691 37H6.32208V35H6.30691V37ZM6.29202 37H6.30691V35H6.29202V37ZM6.27741 37H6.29202V35H6.27741V37ZM6.26309 37H6.27741V35H6.26309V37ZM6.24904 37H6.26309V35H6.24904V37ZM6.23528 37H6.24904V35H6.23528V37ZM6.22181 37H6.23528V35H6.22181V37ZM6.20862 37H6.22181V35H6.20862V37ZM6.19572 37H6.20862V35H6.19572V37ZM6.1831 37H6.19572V35H6.1831V37ZM6.17078 37H6.1831V35H6.17078V37ZM6.15875 37H6.17078V35H6.15875V37ZM6.14701 37H6.15875V35H6.14701V37ZM6.13556 37H6.14701V35H6.13556V37ZM6.12441 37H6.13556V35H6.12441V37ZM6.11356 37H6.12441V35H6.11356V37ZM6.103 37H6.11356V35H6.103V37ZM6.09275 37H6.103V35H6.09275V37ZM6.08279 37H6.09275V35H6.08279V37ZM6.07313 37H6.08279V35H6.07313V37ZM6.06378 37H6.07313V35H6.06378V37ZM6.05473 37H6.06378V35H6.05473V37ZM6.04599 37H6.05473V35H6.04599V37ZM6.03755 37H6.04599V35H6.03755V37ZM6.02942 37H6.03755V35H6.02942V37ZM6.0216 37H6.02942V35H6.0216V37ZM6.01409 37H6.0216V35H6.01409V37ZM6.00689 37H6.01409V35H6.00689V37ZM6 37H6.00689V35H6V37ZM0 31C0 34.3137 2.68629 37 6 37V35C3.79086 35 2 33.2091 2 31H0ZM0 9V31H2V9H0ZM6 3C2.68629 3 0 5.68629 0 9H2C2 6.79086 3.79086 5 6 5V3ZM9.31405 3H6V5H9.31405V3ZM11.314 5C11.314 3.89543 10.4186 3 9.31405 3V5H9.31405H11.314ZM9.31405 7C10.4186 7 11.314 6.10457 11.314 5H9.31405H9.31405V7ZM6 7H9.31405V5H6V7Z" fill="#1C1E20"/>
</g>
<path id="Rectangle" d="M18.3975 14.1603L18.4205 14.1764L18.4444 14.1912L26.6347 19.2718C27.0238 19.5595 27.1187 20.113 26.8384 20.5178C26.7821 20.5989 26.7133 20.6699 26.6346 20.7281L18.4444 25.8086L18.4205 25.8234L18.3975 25.8395C17.9964 26.1206 17.4438 26.0234 17.1615 25.6158L16.3533 26.1756L17.1615 25.6158C17.0566 25.4645 17 25.2837 17 25.098V14.9019C17 14.3982 17.4043 14 17.8906 14C18.0713 14 18.2482 14.0557 18.3975 14.1603Z" stroke="#1C1E20" stroke-width="2" stroke-linecap="round"/>
</g>
</svg>
